<?xml version="1.0" encoding="UTF-8"?>
<svg id="Layer_2" data-name="Layer 2" xmlns="http://www.w3.org/2000/svg" viewBox="0 0 54.99 34.54">
  <defs>
    <style>
      .cls-1 {
        fill: #7c6658;
      }

      .cls-1, .cls-2 {
        opacity: .8;
      }

      .cls-2 {
        fill: #3f3519;
      }
    </style>
  </defs>
  <g id="Layer_1-2" data-name="Layer 1">
    <g>
      <g>
        <path class="cls-1" d="M1,8.38c.01.08.1.13.18.11.35-.12.47-.16.63-.19,1.58-.35,3.51.14,4.38,2.83.04.12.1.37.14.82.01.15.03.29.06.43s.06.29.1.42c.14.52.79.68,1.16.3,1.52-1.55,1.83-1.59,2.35-1.79.47-.18,1.26-.28,2.71.14.66.19,1.28-.37,1.16-1.04-.04-.24-.11-.57-.2-1.02-.14-.68-.05-1.78.21-2.43.37-.92.92-1.61,1.73-2.17.17-.12.18-.25.15-.36-.12-.38-.76-1.29-1.02-1.55C12.58.68,9.58-.65,6.38.32,2.35,1.54,1.21,5.84,1.08,7.5c0,0,0,.02,0,.03-.02.09-.1.6-.07.86Z"/>
        <path class="cls-2" d="M15.7,15.58c.51,2.88-.51,5.7-1.71,6.24-1.77.8-4.43-1.08-6.16-3.88-1.36-2.21-.29-5.09,2.19-5.9s5.16.64,5.67,3.54Z"/>
        <path class="cls-2" d="M6,12.18c.34,2.74-.69,5.03-2.5,5.61s-2.41-.5-3.01-3.27c-.7-3.21-.86-5.25.94-5.83s4.21.68,4.56,3.49Z"/>
        <path class="cls-2" d="M20.68,9.59c1.49,2.75,2.11,4.27.16,4.9s-4.81-.37-6.14-3.18c-1.4-2.96-.19-6.01,1.83-6.3,1.23-.18,2.73,1.95,4.16,4.58Z"/>
      </g>
      <g>
        <path class="cls-1" d="M33.92,20.91c.01.08.1.13.18.11.35-.12.47-.16.63-.19,1.58-.35,3.51.14,4.38,2.83.04.12.1.37.14.82.01.15.03.29.06.43s.06.29.1.42c.14.52.79.68,1.16.3,1.52-1.55,1.83-1.59,2.35-1.79.47-.18,1.26-.28,2.71.14.66.19,1.28-.37,1.16-1.04-.04-.24-.11-.57-.2-1.02-.14-.68-.05-1.78.21-2.43.37-.92.92-1.61,1.73-2.17.17-.12.18-.25.15-.36-.12-.38-.76-1.29-1.02-1.55-2.17-2.19-5.16-3.52-8.37-2.54-4.03,1.22-5.16,5.52-5.3,7.17,0,0,0,.02,0,.03-.02.09-.1.6-.07.86Z"/>
        <path class="cls-2" d="M48.62,28.11c.51,2.88-.51,5.7-1.71,6.24-1.77.8-4.43-1.08-6.16-3.88-1.36-2.21-.29-5.09,2.19-5.9s5.16.64,5.67,3.54Z"/>
        <path class="cls-2" d="M38.91,24.71c.34,2.74-.69,5.03-2.5,5.61s-2.41-.5-3.01-3.27c-.7-3.21-.86-5.25.94-5.83s4.21.68,4.56,3.49Z"/>
        <path class="cls-2" d="M53.6,22.12c1.49,2.75,2.11,4.27.16,4.9s-4.81-.37-6.14-3.18c-1.4-2.96-.19-6.01,1.83-6.3,1.23-.18,2.73,1.95,4.16,4.58Z"/>
      </g>
    </g>
  </g>
</svg>