<?xml version="1.0" encoding="UTF-8"?>
<svg id="Layer_2" data-name="Layer 2" xmlns="http://www.w3.org/2000/svg" viewBox="0 0 1000.5 1445.55">
  <defs>
    <style>
      .cls-1 {
        fill: #4c3b3b;
      }

      .cls-2 {
        fill: #fff;
      }

      .cls-3 {
        fill: #725252;
      }

      .cls-4 {
        fill: #bf9d9d;
      }
    </style>
  </defs>
  <g id="Layer_1-2" data-name="Layer 1">
    <g>
      <rect class="cls-3" x="269.48" y="615.63" width="38.46" height="38.47"/>
      <rect class="cls-3" x="615.63" y="692.56" width="38.47" height="38.46"/>
      <rect class="cls-3" x="500.25" y="692.56" width="38.46" height="38.46"/>
      <rect class="cls-3" x="423.33" y="692.56" width="38.46" height="38.46"/>
      <rect class="cls-3" x="615.63" y="654.1" width="38.47" height="38.46"/>
      <rect class="cls-3" x="615.63" y="615.63" width="38.47" height="38.47"/>
      <rect class="cls-1" x="615.63" y="577.17" width="38.47" height="38.46"/>
      <rect class="cls-3" x="577.17" y="654.1" width="38.46" height="38.46"/>
      <rect class="cls-3" x="577.17" y="615.63" width="38.46" height="38.47"/>
      <rect class="cls-3" x="577.17" y="577.17" width="38.46" height="38.46"/>
      <rect class="cls-3" x="577.17" y="538.71" width="38.46" height="38.46"/>
      <rect class="cls-3" x="538.71" y="654.1" width="38.46" height="38.46"/>
      <rect class="cls-3" x="538.71" y="615.63" width="38.46" height="38.47"/>
      <rect class="cls-3" x="538.71" y="577.17" width="38.46" height="38.46"/>
      <rect class="cls-3" x="538.71" y="538.71" width="38.46" height="38.46"/>
      <rect class="cls-3" x="500.25" y="654.1" width="38.46" height="38.46"/>
      <rect class="cls-3" x="500.25" y="615.63" width="38.46" height="38.47"/>
      <rect class="cls-3" x="500.25" y="577.17" width="38.46" height="38.46"/>
      <rect class="cls-3" x="500.25" y="538.71" width="38.46" height="38.46"/>
      <rect class="cls-3" x="461.79" y="654.1" width="38.46" height="38.46"/>
      <rect class="cls-3" x="461.79" y="615.63" width="38.46" height="38.47"/>
      <rect class="cls-3" x="461.79" y="577.17" width="38.46" height="38.46"/>
      <rect class="cls-3" x="461.79" y="538.71" width="38.46" height="38.46"/>
      <rect class="cls-1" x="461.79" y="500.25" width="38.46" height="38.46"/>
      <rect class="cls-4" x="423.33" y="654.1" width="38.46" height="38.46"/>
      <rect class="cls-4" x="423.33" y="615.63" width="38.46" height="38.47"/>
      <rect class="cls-3" x="423.33" y="577.17" width="38.46" height="38.46"/>
      <rect class="cls-3" x="423.33" y="538.71" width="38.46" height="38.46"/>
      <rect class="cls-4" x="384.87" y="654.1" width="38.46" height="38.46"/>
      <rect class="cls-4" x="384.87" y="615.63" width="38.46" height="38.47"/>
      <rect class="cls-2" x="384.87" y="577.17" width="38.46" height="38.46"/>
      <rect class="cls-3" x="384.87" y="538.71" width="38.46" height="38.46"/>
      <rect class="cls-1" x="384.87" y="500.25" width="38.46" height="38.46"/>
      <rect class="cls-4" x="346.4" y="615.63" width="38.47" height="38.47"/>
      <rect class="cls-3" x="346.4" y="577.17" width="38.47" height="38.46"/>
      <rect class="cls-3" x="346.4" y="538.71" width="38.47" height="38.46"/>
      <rect class="cls-3" x="307.94" y="615.63" width="38.46" height="38.47"/>
      <rect class="cls-3" x="307.94" y="577.17" width="38.46" height="38.46"/>
    </g>
  </g>
</svg>