<?xml version="1.0" encoding="UTF-8"?>
<svg id="Layer_1" data-name="Layer 1" xmlns="http://www.w3.org/2000/svg" viewBox="0 0 1051.71 1445.55">
  <defs>
    <style>
      .cls-1 {
        fill: #4c3b3b;
      }

      .cls-2 {
        fill: #443838;
      }

      .cls-3 {
        fill: #fff7f0;
      }

      .cls-4 {
        fill: #77685e;
      }

      .cls-5 {
        fill: #725252;
      }

      .cls-6 {
        fill: #543c3c;
      }

      .cls-7 {
        fill: #a07878;
      }

      .cls-8 {
        fill: #564444;
      }

      .cls-9 {
        fill: #509171;
      }

      .cls-10 {
        fill: #bf9d9d;
      }
    </style>
  </defs>
  <g>
    <rect class="cls-4" x="692.56" y="769.48" width="38.46" height="38.46"/>
    <rect class="cls-4" x="692.56" y="731.02" width="38.46" height="38.46"/>
    <rect class="cls-4" x="692.56" y="692.56" width="38.46" height="38.46"/>
    <rect class="cls-4" x="654.1" y="769.48" width="38.46" height="38.46"/>
    <rect class="cls-4" x="654.1" y="731.02" width="38.46" height="38.46"/>
    <rect class="cls-4" x="654.1" y="692.56" width="38.46" height="38.46"/>
    <rect class="cls-4" x="615.63" y="769.48" width="38.47" height="38.46"/>
    <rect class="cls-4" x="615.63" y="731.02" width="38.47" height="38.46"/>
    <rect class="cls-4" x="615.63" y="692.56" width="38.47" height="38.46"/>
    <rect class="cls-5" x="615.63" y="654.1" width="38.47" height="38.46"/>
    <rect class="cls-1" x="615.63" y="615.63" width="38.47" height="38.47"/>
    <rect class="cls-4" x="577.17" y="769.48" width="38.46" height="38.46"/>
    <rect class="cls-4" x="577.17" y="731.02" width="38.46" height="38.46"/>
    <rect class="cls-5" x="577.17" y="692.56" width="38.46" height="38.46"/>
    <rect class="cls-5" x="577.17" y="654.1" width="38.46" height="38.46"/>
    <rect class="cls-5" x="577.17" y="615.63" width="38.46" height="38.47"/>
    <rect class="cls-4" x="538.71" y="769.48" width="38.46" height="38.46"/>
    <rect class="cls-4" x="538.71" y="731.02" width="38.46" height="38.46"/>
    <rect class="cls-5" x="538.71" y="692.56" width="38.46" height="38.46"/>
    <rect class="cls-5" x="538.71" y="654.1" width="38.46" height="38.46"/>
    <rect class="cls-5" x="538.71" y="615.63" width="38.46" height="38.47"/>
    <rect class="cls-5" x="538.71" y="577.17" width="38.46" height="38.46"/>
    <rect class="cls-4" x="500.25" y="769.48" width="38.46" height="38.46"/>
    <rect class="cls-4" x="500.25" y="731.02" width="38.46" height="38.46"/>
    <rect class="cls-4" x="500.25" y="692.56" width="38.46" height="38.46"/>
    <rect class="cls-5" x="500.25" y="654.1" width="38.46" height="38.46"/>
    <rect class="cls-5" x="500.25" y="615.63" width="38.46" height="38.47"/>
    <rect class="cls-5" x="500.25" y="577.17" width="38.46" height="38.46"/>
    <rect class="cls-4" x="461.79" y="769.48" width="38.46" height="38.46"/>
    <rect class="cls-4" x="461.79" y="731.02" width="38.46" height="38.46"/>
    <rect class="cls-4" x="461.79" y="692.56" width="38.46" height="38.46"/>
    <rect class="cls-5" x="461.79" y="654.1" width="38.46" height="38.46"/>
    <rect class="cls-5" x="461.79" y="615.63" width="38.46" height="38.47"/>
    <rect class="cls-5" x="461.79" y="577.17" width="38.46" height="38.46"/>
    <rect class="cls-4" x="423.33" y="769.48" width="38.46" height="38.46"/>
    <rect class="cls-4" x="423.33" y="731.02" width="38.46" height="38.46"/>
    <rect class="cls-4" x="423.33" y="692.56" width="38.46" height="38.46"/>
    <rect class="cls-5" x="423.33" y="654.1" width="38.46" height="38.46"/>
    <rect class="cls-5" x="423.33" y="615.63" width="38.46" height="38.47"/>
    <rect class="cls-5" x="423.33" y="577.17" width="38.46" height="38.46"/>
    <rect class="cls-4" x="384.87" y="769.48" width="38.46" height="38.46"/>
    <rect class="cls-4" x="384.87" y="731.02" width="38.46" height="38.46"/>
    <rect class="cls-5" x="384.87" y="692.56" width="38.46" height="38.46"/>
    <rect class="cls-5" x="384.87" y="654.1" width="38.46" height="38.46"/>
    <rect class="cls-5" x="384.87" y="615.63" width="38.46" height="38.47"/>
    <rect class="cls-5" x="384.87" y="577.17" width="38.46" height="38.46"/>
    <rect class="cls-4" x="346.4" y="769.48" width="38.47" height="38.46"/>
    <rect class="cls-4" x="346.4" y="731.02" width="38.47" height="38.46"/>
    <rect class="cls-5" x="346.4" y="692.56" width="38.47" height="38.46"/>
    <rect class="cls-5" x="346.4" y="654.1" width="38.47" height="38.46"/>
    <rect class="cls-5" x="346.4" y="615.63" width="38.47" height="38.47"/>
    <rect class="cls-5" x="346.4" y="577.17" width="38.47" height="38.46"/>
    <rect class="cls-1" x="346.4" y="538.71" width="38.47" height="38.46"/>
    <rect class="cls-4" x="307.94" y="769.48" width="38.46" height="38.46"/>
    <rect class="cls-4" x="307.94" y="731.02" width="38.46" height="38.46"/>
    <rect class="cls-4" x="307.94" y="692.56" width="38.46" height="38.46"/>
    <rect class="cls-10" x="307.94" y="654.1" width="38.46" height="38.46"/>
    <rect class="cls-7" x="307.94" y="615.63" width="38.46" height="38.47"/>
    <rect class="cls-5" x="307.94" y="577.17" width="38.46" height="38.46"/>
    <rect class="cls-4" x="269.48" y="769.48" width="38.46" height="38.46"/>
    <rect class="cls-4" x="269.48" y="731.02" width="38.46" height="38.46"/>
    <rect class="cls-4" x="269.48" y="692.56" width="38.46" height="38.46"/>
    <rect class="cls-10" x="269.48" y="654.1" width="38.46" height="38.46"/>
    <rect class="cls-5" x="269.48" y="615.63" width="38.46" height="38.47"/>
    <rect class="cls-4" x="192.56" y="769.48" width="76.92" height="38.46"/>
    <rect class="cls-4" x="192.56" y="731.02" width="76.92" height="38.46"/>
    <rect class="cls-4" x="192.56" y="692.56" width="76.92" height="38.46"/>
    <rect class="cls-5" x="192.56" y="654.1" width="76.92" height="38.46"/>
    <rect class="cls-4" x="154.1" y="769.48" width="38.46" height="38.46"/>
    <rect class="cls-4" x="154.1" y="731.02" width="38.46" height="38.46"/>
    <rect class="cls-4" x="154.1" y="692.56" width="38.46" height="38.46"/>
  </g>
  <ellipse class="cls-6" cx="154.47" cy="750.25" rx="7.53" ry="57.69"/>
  <ellipse class="cls-2" cx="153.35" cy="749.55" rx="4.19" ry="36.44"/>
  <g>
    <path class="cls-8" d="M722.42,700.89s27.05-46.95,30.21-56.24-2.34-52.43-4.67-53.22,9.8,1.16,10.74,1.92,1.34,40.42,4.39,51.88c3.05,11.46,17.98,14.81,31.63,15.55,13.65.74,20.62-10.79,19.55-6.38s-1.35,7.79-1.26,13.91-23.67.63-31.08-.59c-7.4-1.22-17.92-3.5-27.97,1.77s-25.19,34.43-29.01,41.82-2.53-10.42-2.53-10.42Z"/>
    <path class="cls-9" d="M806.15,645.92c1.57-6.43,16.54-15.43,21.4-14.42,4.87,1.01,7.33,1.95,12.32,1.43,4.99-.52,3.86-5.65,1.22,5.19s-12.22,22.13-17.85,22.92c-5.63.78-8.25.53-15.7-1.54s-1.39-13.58-1.39-13.58Z"/>
    <path class="cls-9" d="M814.7,667.34c3.59-.56,11.31,5.12,11.83,7.8s.56,4.13,1.88,6.55,3.68.76-2.38,1.71-13.8-1.52-15.38-4.21-2.01-4.07-2.54-8.28c-.53-4.22,6.59-3.57,6.59-3.57Z"/>
    <path class="cls-9" d="M739.36,592.07c-5.07-2.53-9.75-16.71-7.98-20.58,1.77-3.87,3.02-5.75,3.52-10.01.51-4.26-3.98-4.29,4.56-.03,8.55,4.25,16.15,14.38,15.74,19.23s-1.12,6.98-4.26,12.81c-3.14,5.83-11.59-1.41-11.59-1.41Z"/>
    <path class="cls-9" d="M757.14,591.07c-.53-3.93,5.86-12.22,8.8-12.72,2.94-.5,4.52-.51,7.19-1.89s.92-3.99,1.81,2.63c.89,6.63-1.99,15.02-4.96,16.68-2.97,1.67-4.49,2.09-9.1,2.57s-3.74-7.28-3.74-7.28Z"/>
  </g>
  <g>
    <rect class="cls-3" x="243.25" y="591.1" width="8.31" height="6.66"/>
    <rect class="cls-3" x="251.55" y="591.1" width="8.31" height="6.66"/>
    <rect class="cls-3" x="234.94" y="591.1" width="8.31" height="6.66"/>
    <rect class="cls-3" x="226.63" y="591.1" width="8.31" height="6.66"/>
    <rect class="cls-3" x="230.79" y="583.05" width="8.31" height="9.43"/>
    <rect class="cls-3" x="239.09" y="577.17" width="8.31" height="9.43"/>
    <rect class="cls-3" x="244.95" y="572.46" width="8.31" height="9.43"/>
    <rect class="cls-3" x="251.55" y="567.74" width="8.31" height="9.43"/>
    <rect class="cls-3" x="251.55" y="563.54" width="8.31" height="6.89"/>
    <rect class="cls-3" x="243.25" y="563.54" width="8.31" height="6.89"/>
    <rect class="cls-3" x="234.94" y="563.54" width="8.31" height="6.89"/>
    <rect class="cls-3" x="226.63" y="563.54" width="8.31" height="6.89"/>
  </g>
  <g>
    <rect class="cls-3" x="195.99" y="544.34" width="8.31" height="6.66"/>
    <rect class="cls-3" x="204.29" y="544.34" width="8.31" height="6.66"/>
    <rect class="cls-3" x="187.68" y="544.34" width="8.31" height="6.66"/>
    <rect class="cls-3" x="179.37" y="544.34" width="8.31" height="6.66"/>
    <rect class="cls-3" x="183.53" y="536.29" width="8.31" height="9.43"/>
    <rect class="cls-3" x="191.83" y="530.42" width="8.31" height="9.43"/>
    <rect class="cls-3" x="197.69" y="525.7" width="8.31" height="9.43"/>
    <rect class="cls-3" x="204.29" y="520.98" width="8.31" height="9.43"/>
    <rect class="cls-3" x="204.29" y="516.78" width="8.31" height="6.89"/>
    <rect class="cls-3" x="195.99" y="516.78" width="8.31" height="6.89"/>
    <rect class="cls-3" x="187.68" y="516.78" width="8.31" height="6.89"/>
    <rect class="cls-3" x="179.37" y="516.78" width="8.31" height="6.89"/>
  </g>
  <g>
    <rect class="cls-3" x="147.55" y="495.26" width="8.31" height="6.66"/>
    <rect class="cls-3" x="155.85" y="495.26" width="8.31" height="6.66"/>
    <rect class="cls-3" x="139.24" y="495.26" width="8.31" height="6.66"/>
    <rect class="cls-3" x="130.94" y="495.26" width="8.31" height="6.66"/>
    <rect class="cls-3" x="135.09" y="487.21" width="8.31" height="9.43"/>
    <rect class="cls-3" x="143.39" y="481.33" width="8.31" height="9.43"/>
    <rect class="cls-3" x="149.25" y="476.61" width="8.31" height="9.43"/>
    <rect class="cls-3" x="155.85" y="471.89" width="8.31" height="9.43"/>
    <rect class="cls-3" x="155.85" y="467.69" width="8.31" height="6.89"/>
    <rect class="cls-3" x="147.55" y="467.69" width="8.31" height="6.89"/>
    <rect class="cls-3" x="139.24" y="467.69" width="8.31" height="6.89"/>
    <rect class="cls-3" x="130.94" y="467.69" width="8.31" height="6.89"/>
  </g>
</svg>