<?xml version="1.0" encoding="UTF-8"?>
<svg id="Layer_1" data-name="Layer 1" xmlns="http://www.w3.org/2000/svg" viewBox="0 0 1051.71 1445.55">
  <defs>
    <style>
      .cls-1 {
        fill: #4c3b3b;
      }

      .cls-2 {
        fill: #443838;
      }

      .cls-3 {
        fill: #fff7f0;
      }

      .cls-4 {
        fill: #77685e;
      }

      .cls-5 {
        fill: #725252;
      }

      .cls-6 {
        fill: #543c3c;
      }

      .cls-7 {
        fill: #a07878;
      }

      .cls-8 {
        fill: #564444;
      }

      .cls-9 {
        fill: #509171;
      }

      .cls-10 {
        fill: #bf9d9d;
      }
    </style>
  </defs>
  <g>
    <rect class="cls-4" x="692.56" y="769.48" width="38.46" height="38.46"/>
    <rect class="cls-4" x="692.56" y="731.02" width="38.46" height="38.46"/>
    <rect class="cls-4" x="692.56" y="692.56" width="38.46" height="38.46"/>
    <rect class="cls-4" x="654.1" y="769.48" width="38.46" height="38.46"/>
    <rect class="cls-4" x="654.1" y="731.02" width="38.46" height="38.46"/>
    <rect class="cls-4" x="654.1" y="692.56" width="38.46" height="38.46"/>
    <rect class="cls-4" x="615.63" y="769.48" width="38.47" height="38.46"/>
    <rect class="cls-4" x="615.63" y="731.02" width="38.47" height="38.46"/>
    <rect class="cls-4" x="615.63" y="692.56" width="38.47" height="38.46"/>
    <rect class="cls-5" x="615.63" y="654.1" width="38.47" height="38.46"/>
    <rect class="cls-1" x="615.63" y="615.63" width="38.47" height="38.47"/>
    <rect class="cls-4" x="577.17" y="769.48" width="38.46" height="38.46"/>
    <rect class="cls-4" x="577.17" y="731.02" width="38.46" height="38.46"/>
    <rect class="cls-5" x="577.17" y="692.56" width="38.46" height="38.46"/>
    <rect class="cls-5" x="577.17" y="654.1" width="38.46" height="38.46"/>
    <rect class="cls-5" x="577.17" y="615.63" width="38.46" height="38.47"/>
    <rect class="cls-4" x="538.71" y="769.48" width="38.46" height="38.46"/>
    <rect class="cls-4" x="538.71" y="731.02" width="38.46" height="38.46"/>
    <rect class="cls-5" x="538.71" y="692.56" width="38.46" height="38.46"/>
    <rect class="cls-5" x="538.71" y="654.1" width="38.46" height="38.46"/>
    <rect class="cls-5" x="538.71" y="615.63" width="38.46" height="38.47"/>
    <rect class="cls-5" x="538.71" y="577.17" width="38.46" height="38.46"/>
    <rect class="cls-4" x="500.25" y="769.48" width="38.46" height="38.46"/>
    <rect class="cls-4" x="500.25" y="731.02" width="38.46" height="38.46"/>
    <rect class="cls-4" x="500.25" y="692.56" width="38.46" height="38.46"/>
    <rect class="cls-5" x="500.25" y="654.1" width="38.46" height="38.46"/>
    <rect class="cls-5" x="500.25" y="615.63" width="38.46" height="38.47"/>
    <rect class="cls-5" x="500.25" y="577.17" width="38.46" height="38.46"/>
    <rect class="cls-4" x="461.79" y="769.48" width="38.46" height="38.46"/>
    <rect class="cls-4" x="461.79" y="731.02" width="38.46" height="38.46"/>
    <rect class="cls-4" x="461.79" y="692.56" width="38.46" height="38.46"/>
    <rect class="cls-5" x="461.79" y="654.1" width="38.46" height="38.46"/>
    <rect class="cls-5" x="461.79" y="615.63" width="38.46" height="38.47"/>
    <rect class="cls-5" x="461.79" y="577.17" width="38.46" height="38.46"/>
    <rect class="cls-4" x="423.33" y="769.48" width="38.46" height="38.46"/>
    <rect class="cls-4" x="423.33" y="731.02" width="38.46" height="38.46"/>
    <rect class="cls-4" x="423.33" y="692.56" width="38.46" height="38.46"/>
    <rect class="cls-5" x="423.33" y="654.1" width="38.46" height="38.46"/>
    <rect class="cls-5" x="423.33" y="615.63" width="38.46" height="38.47"/>
    <rect class="cls-5" x="423.33" y="577.17" width="38.46" height="38.46"/>
    <rect class="cls-4" x="384.87" y="769.48" width="38.46" height="38.46"/>
    <rect class="cls-4" x="384.87" y="731.02" width="38.46" height="38.46"/>
    <rect class="cls-5" x="384.87" y="692.56" width="38.46" height="38.46"/>
    <rect class="cls-5" x="384.87" y="654.1" width="38.46" height="38.46"/>
    <rect class="cls-5" x="384.87" y="615.63" width="38.46" height="38.47"/>
    <rect class="cls-5" x="384.87" y="577.17" width="38.46" height="38.46"/>
    <rect class="cls-4" x="346.4" y="769.48" width="38.47" height="38.46"/>
    <rect class="cls-4" x="346.4" y="731.02" width="38.47" height="38.46"/>
    <rect class="cls-5" x="346.4" y="692.56" width="38.47" height="38.46"/>
    <rect class="cls-5" x="346.4" y="654.1" width="38.47" height="38.46"/>
    <rect class="cls-5" x="346.4" y="615.63" width="38.47" height="38.47"/>
    <rect class="cls-5" x="346.4" y="577.17" width="38.47" height="38.46"/>
    <rect class="cls-1" x="346.4" y="538.71" width="38.47" height="38.46"/>
    <rect class="cls-4" x="307.94" y="769.48" width="38.46" height="38.46"/>
    <rect class="cls-4" x="307.94" y="731.02" width="38.46" height="38.46"/>
    <rect class="cls-4" x="307.94" y="692.56" width="38.46" height="38.46"/>
    <rect class="cls-10" x="307.94" y="654.1" width="38.46" height="38.46"/>
    <rect class="cls-7" x="307.94" y="615.63" width="38.46" height="38.47"/>
    <rect class="cls-5" x="307.94" y="577.17" width="38.46" height="38.46"/>
    <rect class="cls-4" x="269.48" y="769.48" width="38.46" height="38.46"/>
    <rect class="cls-4" x="269.48" y="731.02" width="38.46" height="38.46"/>
    <rect class="cls-4" x="269.48" y="692.56" width="38.46" height="38.46"/>
    <rect class="cls-10" x="269.48" y="654.1" width="38.46" height="38.46"/>
    <rect class="cls-5" x="269.48" y="615.63" width="38.46" height="38.47"/>
    <rect class="cls-4" x="192.56" y="769.48" width="76.92" height="38.46"/>
    <rect class="cls-4" x="192.56" y="731.02" width="76.92" height="38.46"/>
    <rect class="cls-4" x="192.56" y="692.56" width="76.92" height="38.46"/>
    <rect class="cls-5" x="192.56" y="654.1" width="76.92" height="38.46"/>
    <rect class="cls-4" x="154.1" y="769.48" width="38.46" height="38.46"/>
    <rect class="cls-4" x="154.1" y="731.02" width="38.46" height="38.46"/>
    <rect class="cls-4" x="154.1" y="692.56" width="38.46" height="38.46"/>
  </g>
  <ellipse class="cls-6" cx="154.47" cy="750.25" rx="7.53" ry="57.69"/>
  <ellipse class="cls-2" cx="153.35" cy="749.55" rx="4.19" ry="36.44"/>
  <path class="cls-8" d="M722.42,700.89s27.05-46.95,30.21-56.24-2.34-52.43-4.67-53.22,9.8,1.16,10.74,1.92,1.34,40.42,4.39,51.88c3.05,11.46,17.98,14.81,31.63,15.55,13.65.74,20.62-10.79,19.55-6.38s-1.35,7.79-1.26,13.91-23.67.63-31.08-.59c-7.4-1.22-17.92-3.5-27.97,1.77s-25.19,34.43-29.01,41.82-2.53-10.42-2.53-10.42Z"/>
  <path class="cls-9" d="M808.39,653.08c-1.23-6.51,8.68-20.89,13.53-21.98s7.48-1.25,11.81-3.79c4.33-2.54,1.18-6.74,3.26,4.23,2.08,10.96-1.97,25.21-6.78,28.25-4.81,3.04-7.29,3.89-14.94,5.09-7.65,1.2-6.88-11.79-6.88-11.79Z"/>
  <path class="cls-9" d="M818.81,666.23c3.49,1.03,8.05,9.46,7.37,12.1s-1.26,3.97-1.1,6.72c.16,2.75,3,2.26-2.88.54s-11.83-7.26-12.12-10.37c-.29-3.11-.08-4.54,1.24-8.57,1.32-4.04,7.49-.42,7.49-.42Z"/>
  <path class="cls-9" d="M744.69,591.84c-5.63-.62-14.93-12.31-14.61-16.55.32-4.24.84-6.43-.16-10.61-1-4.18-5.22-2.64,4.27-1.61,9.49,1.03,20.13,7.9,21.42,12.59s1.37,6.94.44,13.49c-.92,6.56-11.37,2.69-11.37,2.69Z"/>
  <path class="cls-9" d="M756.03,586.38c1.27-3.76,10.66-8.37,13.51-7.51,2.85.85,4.28,1.54,7.28,1.48,3.01-.06,2.59-3.17.46,3.16-2.13,6.34-8.42,12.59-11.83,12.77-3.4.18-4.95-.11-9.3-1.72s-.14-8.18-.14-8.18Z"/>
  <g>
    <rect class="cls-3" x="243.25" y="591.1" width="8.31" height="6.66"/>
    <rect class="cls-3" x="251.55" y="591.1" width="8.31" height="6.66"/>
    <rect class="cls-3" x="234.94" y="591.1" width="8.31" height="6.66"/>
    <rect class="cls-3" x="226.63" y="591.1" width="8.31" height="6.66"/>
    <rect class="cls-3" x="230.79" y="583.05" width="8.31" height="9.43"/>
    <rect class="cls-3" x="239.09" y="577.17" width="8.31" height="9.43"/>
    <rect class="cls-3" x="244.95" y="572.46" width="8.31" height="9.43"/>
    <rect class="cls-3" x="251.55" y="567.74" width="8.31" height="9.43"/>
    <rect class="cls-3" x="251.55" y="563.54" width="8.31" height="6.89"/>
    <rect class="cls-3" x="243.25" y="563.54" width="8.31" height="6.89"/>
    <rect class="cls-3" x="234.94" y="563.54" width="8.31" height="6.89"/>
    <rect class="cls-3" x="226.63" y="563.54" width="8.31" height="6.89"/>
  </g>
  <g>
    <rect class="cls-3" x="195.99" y="544.34" width="8.31" height="6.66"/>
    <rect class="cls-3" x="204.29" y="544.34" width="8.31" height="6.66"/>
    <rect class="cls-3" x="187.68" y="544.34" width="8.31" height="6.66"/>
    <rect class="cls-3" x="179.37" y="544.34" width="8.31" height="6.66"/>
    <rect class="cls-3" x="183.53" y="536.29" width="8.31" height="9.43"/>
    <rect class="cls-3" x="191.83" y="530.42" width="8.31" height="9.43"/>
    <rect class="cls-3" x="197.69" y="525.7" width="8.31" height="9.43"/>
    <rect class="cls-3" x="204.29" y="520.98" width="8.31" height="9.43"/>
    <rect class="cls-3" x="204.29" y="516.78" width="8.31" height="6.89"/>
    <rect class="cls-3" x="195.99" y="516.78" width="8.31" height="6.89"/>
    <rect class="cls-3" x="187.68" y="516.78" width="8.31" height="6.89"/>
    <rect class="cls-3" x="179.37" y="516.78" width="8.31" height="6.89"/>
  </g>
</svg>