<?xml version="1.0" encoding="UTF-8"?>
<svg id="Layer_1" data-name="Layer 1" xmlns="http://www.w3.org/2000/svg" viewBox="0 0 1051.71 1445.55">
  <defs>
    <style>
      .cls-1 {
        fill: #4c3b3b;
      }

      .cls-2 {
        fill: #443838;
      }

      .cls-3 {
        fill: #fff7f0;
      }

      .cls-4 {
        fill: #77685e;
      }

      .cls-5 {
        fill: #725252;
      }

      .cls-6 {
        fill: #543c3c;
      }

      .cls-7 {
        fill: #a07878;
      }

      .cls-8 {
        fill: #564444;
      }

      .cls-9 {
        fill: #509171;
      }

      .cls-10 {
        fill: #bf9d9d;
      }
    </style>
  </defs>
  <g>
    <rect class="cls-4" x="692.56" y="769.48" width="38.46" height="38.46"/>
    <rect class="cls-4" x="692.56" y="731.02" width="38.46" height="38.46"/>
    <rect class="cls-4" x="692.56" y="692.56" width="38.46" height="38.46"/>
    <rect class="cls-4" x="654.1" y="769.48" width="38.46" height="38.46"/>
    <rect class="cls-4" x="654.1" y="731.02" width="38.46" height="38.46"/>
    <rect class="cls-4" x="654.1" y="692.56" width="38.46" height="38.46"/>
    <rect class="cls-4" x="615.63" y="769.48" width="38.47" height="38.46"/>
    <rect class="cls-4" x="615.63" y="731.02" width="38.47" height="38.46"/>
    <rect class="cls-4" x="615.63" y="692.56" width="38.47" height="38.46"/>
    <rect class="cls-5" x="615.63" y="654.1" width="38.47" height="38.46"/>
    <rect class="cls-1" x="615.63" y="615.63" width="38.47" height="38.47"/>
    <rect class="cls-4" x="577.17" y="769.48" width="38.46" height="38.46"/>
    <rect class="cls-4" x="577.17" y="731.02" width="38.46" height="38.46"/>
    <rect class="cls-5" x="577.17" y="692.56" width="38.46" height="38.46"/>
    <rect class="cls-5" x="577.17" y="654.1" width="38.46" height="38.46"/>
    <rect class="cls-5" x="577.17" y="615.63" width="38.46" height="38.47"/>
    <rect class="cls-4" x="538.71" y="769.48" width="38.46" height="38.46"/>
    <rect class="cls-4" x="538.71" y="731.02" width="38.46" height="38.46"/>
    <rect class="cls-5" x="538.71" y="692.56" width="38.46" height="38.46"/>
    <rect class="cls-5" x="538.71" y="654.1" width="38.46" height="38.46"/>
    <rect class="cls-5" x="538.71" y="615.63" width="38.46" height="38.47"/>
    <rect class="cls-5" x="538.71" y="577.17" width="38.46" height="38.46"/>
    <rect class="cls-4" x="500.25" y="769.48" width="38.46" height="38.46"/>
    <rect class="cls-4" x="500.25" y="731.02" width="38.46" height="38.46"/>
    <rect class="cls-4" x="500.25" y="692.56" width="38.46" height="38.46"/>
    <rect class="cls-5" x="500.25" y="654.1" width="38.46" height="38.46"/>
    <rect class="cls-5" x="500.25" y="615.63" width="38.46" height="38.47"/>
    <rect class="cls-5" x="500.25" y="577.17" width="38.46" height="38.46"/>
    <rect class="cls-4" x="461.79" y="769.48" width="38.46" height="38.46"/>
    <rect class="cls-4" x="461.79" y="731.02" width="38.46" height="38.46"/>
    <rect class="cls-4" x="461.79" y="692.56" width="38.46" height="38.46"/>
    <rect class="cls-5" x="461.79" y="654.1" width="38.46" height="38.46"/>
    <rect class="cls-5" x="461.79" y="615.63" width="38.46" height="38.47"/>
    <rect class="cls-5" x="461.79" y="577.17" width="38.46" height="38.46"/>
    <rect class="cls-4" x="423.33" y="769.48" width="38.46" height="38.46"/>
    <rect class="cls-4" x="423.33" y="731.02" width="38.46" height="38.46"/>
    <rect class="cls-4" x="423.33" y="692.56" width="38.46" height="38.46"/>
    <rect class="cls-5" x="423.33" y="654.1" width="38.46" height="38.46"/>
    <rect class="cls-5" x="423.33" y="615.63" width="38.46" height="38.47"/>
    <rect class="cls-5" x="423.33" y="577.17" width="38.46" height="38.46"/>
    <rect class="cls-4" x="384.87" y="769.48" width="38.46" height="38.46"/>
    <rect class="cls-4" x="384.87" y="731.02" width="38.46" height="38.46"/>
    <rect class="cls-5" x="384.87" y="692.56" width="38.46" height="38.46"/>
    <rect class="cls-5" x="384.87" y="654.1" width="38.46" height="38.46"/>
    <rect class="cls-5" x="384.87" y="615.63" width="38.46" height="38.47"/>
    <rect class="cls-5" x="384.87" y="577.17" width="38.46" height="38.46"/>
    <rect class="cls-4" x="346.4" y="769.48" width="38.47" height="38.46"/>
    <rect class="cls-4" x="346.4" y="731.02" width="38.47" height="38.46"/>
    <rect class="cls-5" x="346.4" y="692.56" width="38.47" height="38.46"/>
    <rect class="cls-5" x="346.4" y="654.1" width="38.47" height="38.46"/>
    <rect class="cls-5" x="346.4" y="615.63" width="38.47" height="38.47"/>
    <rect class="cls-5" x="346.4" y="577.17" width="38.47" height="38.46"/>
    <rect class="cls-1" x="346.4" y="538.71" width="38.47" height="38.46"/>
    <rect class="cls-4" x="307.94" y="769.48" width="38.46" height="38.46"/>
    <rect class="cls-4" x="307.94" y="731.02" width="38.46" height="38.46"/>
    <rect class="cls-4" x="307.94" y="692.56" width="38.46" height="38.46"/>
    <rect class="cls-10" x="307.94" y="654.1" width="38.46" height="38.46"/>
    <rect class="cls-7" x="307.94" y="615.63" width="38.46" height="38.47"/>
    <rect class="cls-5" x="307.94" y="577.17" width="38.46" height="38.46"/>
    <rect class="cls-4" x="269.48" y="769.48" width="38.46" height="38.46"/>
    <rect class="cls-4" x="269.48" y="731.02" width="38.46" height="38.46"/>
    <rect class="cls-4" x="269.48" y="692.56" width="38.46" height="38.46"/>
    <rect class="cls-10" x="269.48" y="654.1" width="38.46" height="38.46"/>
    <rect class="cls-5" x="269.48" y="615.63" width="38.46" height="38.47"/>
    <rect class="cls-4" x="192.56" y="769.48" width="76.92" height="38.46"/>
    <rect class="cls-4" x="192.56" y="731.02" width="76.92" height="38.46"/>
    <rect class="cls-4" x="192.56" y="692.56" width="76.92" height="38.46"/>
    <rect class="cls-5" x="192.56" y="654.1" width="76.92" height="38.46"/>
    <rect class="cls-4" x="154.1" y="769.48" width="38.46" height="38.46"/>
    <rect class="cls-4" x="154.1" y="731.02" width="38.46" height="38.46"/>
    <rect class="cls-4" x="154.1" y="692.56" width="38.46" height="38.46"/>
  </g>
  <ellipse class="cls-6" cx="154.47" cy="750.25" rx="7.53" ry="57.69"/>
  <ellipse class="cls-2" cx="153.35" cy="749.55" rx="4.19" ry="36.44"/>
  <path class="cls-8" d="M722.42,700.89s27.05-46.95,30.21-56.24-2.34-52.43-4.67-53.22,9.8,1.16,10.74,1.92,1.34,40.42,4.39,51.88c3.05,11.46,17.98,14.81,31.63,15.55,13.65.74,20.62-10.79,19.55-6.38s-1.35,7.79-1.26,13.91-23.67.63-31.08-.59c-7.4-1.22-17.92-3.5-27.97,1.77s-25.19,34.43-29.01,41.82-2.53-10.42-2.53-10.42Z"/>
  <path class="cls-9" d="M806.55,648.39c.65-6.59,14.2-17.6,19.16-17.29s7.53.9,12.4-.32c4.87-1.22,3.02-6.13,1.94,4.97-1.09,11.11-8.98,23.63-14.45,25.2-5.47,1.57-8.09,1.68-15.76.68s-3.29-13.25-3.29-13.25Z"/>
  <path class="cls-9" d="M814.09,667.69c3.54-.82,11.65,4.3,12.35,6.94s.85,4.08,2.34,6.4c1.49,2.32,3.72.5-2.25,1.88s-13.87-.53-15.65-3.1c-1.77-2.57-2.29-3.91-3.12-8.08-.83-4.17,6.32-4.03,6.32-4.03Z"/>
  <path class="cls-9" d="M740.48,592.18c-5.24-2.15-10.96-15.95-9.48-19.94,1.47-3.99,2.58-5.95,2.77-10.24.19-4.29-4.29-3.98,4.55-.37,8.84,3.61,17.18,13.14,17.12,18.01s-.6,7.04-3.29,13.09c-2.7,6.05-11.67-.55-11.67-.55Z"/>
  <path class="cls-9" d="M756.79,590.27c-.2-3.96,6.85-11.69,9.82-11.95,2.97-.25,4.54-.13,7.32-1.29s1.25-3.9,1.59,2.77c.34,6.68-3.22,14.8-6.32,16.22-3.1,1.41-4.64,1.72-9.28,1.81s-3.13-7.56-3.13-7.56Z"/>
  <g>
    <rect class="cls-3" x="243.25" y="591.1" width="8.31" height="6.66"/>
    <rect class="cls-3" x="251.55" y="591.1" width="8.31" height="6.66"/>
    <rect class="cls-3" x="234.94" y="591.1" width="8.31" height="6.66"/>
    <rect class="cls-3" x="226.63" y="591.1" width="8.31" height="6.66"/>
    <rect class="cls-3" x="230.79" y="583.05" width="8.31" height="9.43"/>
    <rect class="cls-3" x="239.09" y="577.17" width="8.31" height="9.43"/>
    <rect class="cls-3" x="244.95" y="572.46" width="8.31" height="9.43"/>
    <rect class="cls-3" x="251.55" y="567.74" width="8.31" height="9.43"/>
    <rect class="cls-3" x="251.55" y="563.54" width="8.31" height="6.89"/>
    <rect class="cls-3" x="243.25" y="563.54" width="8.31" height="6.89"/>
    <rect class="cls-3" x="234.94" y="563.54" width="8.31" height="6.89"/>
    <rect class="cls-3" x="226.63" y="563.54" width="8.31" height="6.89"/>
  </g>
</svg>