<?xml version="1.0" encoding="UTF-8"?>
<svg id="Layer_2" data-name="Layer 2" xmlns="http://www.w3.org/2000/svg" viewBox="0 0 701.89 139.35">
  <defs>
    <style>
      .cls-1 {
        fill: #a9a8a9;
      }

      .cls-2 {
        fill: #d99728;
      }

      .cls-3 {
        fill: #617b36;
      }

      .cls-4 {
        fill: #819d3d;
      }

      .cls-5 {
        fill: #110c0c;
      }

      .cls-6 {
        fill: #954821;
      }

      .cls-7 {
        fill: #ede0c1;
      }

      .cls-8 {
        fill: #f8f4dc;
      }

      .cls-9 {
        fill: #4594bf;
      }

      .cls-10 {
        fill: #12577b;
      }

      .cls-11 {
        fill: #d89728;
      }

      .cls-12 {
        fill: #413b1d;
      }

      .cls-13 {
        fill: #e0ae43;
      }

      .cls-14 {
        fill: #745120;
      }

      .cls-15 {
        fill: #e6b987;
      }

      .cls-16 {
        fill: #712e14;
      }

      .cls-17 {
        fill: #e6b986;
      }

      .cls-18 {
        fill: #4a190d;
      }

      .cls-19 {
        fill: #cae1e2;
      }

      .cls-20 {
        fill: #95ae3c;
      }

      .cls-21 {
        fill: #686868;
      }

      .cls-22 {
        fill: #9aaca7;
      }

      .cls-22, .cls-23, .cls-24 {
        stroke: #cccccb;
        stroke-width: .2px;
      }

      .cls-22, .cls-23, .cls-24, .cls-25 {
        stroke-miterlimit: 10;
      }

      .cls-26 {
        opacity: .46;
      }

      .cls-27 {
        fill: #a66c29;
      }

      .cls-28 {
        fill: #621d0c;
      }

      .cls-29 {
        fill: #0a304d;
      }

      .cls-30, .cls-24 {
        fill: #e0e0e0;
      }

      .cls-23 {
        fill: #5784a0;
      }

      .cls-31 {
        fill: #17110b;
      }

      .cls-32 {
        fill: #2f110d;
      }

      .cls-33 {
        fill: #bcc6bf;
      }

      .cls-34 {
        fill: #f9a675;
      }

      .cls-35 {
        fill: #954922;
      }

      .cls-36 {
        fill: #562c13;
      }

      .cls-37 {
        fill: #23100a;
      }

      .cls-38 {
        fill: #3d636d;
      }

      .cls-39 {
        fill: #b56b29;
      }

      .cls-40 {
        fill: #c88c36;
      }

      .cls-41 {
        fill: #718738;
      }

      .cls-42 {
        fill: #a85425;
      }

      .cls-43 {
        fill: #dccf31;
      }

      .cls-44 {
        fill: #645a5b;
      }

      .cls-45 {
        fill: #f8f9eb;
      }

      .cls-46 {
        fill: #8c5b25;
      }

      .cls-47 {
        fill: #491b11;
      }

      .cls-48 {
        fill: #572b0f;
      }

      .cls-25 {
        fill: none;
        stroke: #554647;
        stroke-width: .5px;
      }

      .cls-49 {
        fill: #f3b01c;
      }

      .cls-50 {
        fill: #a99c33;
      }

      .cls-51 {
        fill: #7c6b48;
      }

      .cls-52 {
        fill: #f0cc80;
      }

      .cls-53 {
        fill: #e4ad56;
      }

      .cls-54 {
        fill: #d8d9d8;
      }

      .cls-55 {
        fill: #d26728;
      }

      .cls-56 {
        fill: #546d31;
      }

      .cls-57 {
        fill: #9e5d26;
      }

      .cls-58 {
        fill: #c27429;
      }

      .cls-59 {
        fill: #712f15;
      }

      .cls-60 {
        fill: #8c5c25;
      }

      .cls-61 {
        fill: #394e23;
      }

      .cls-62 {
        fill: #fbca2b;
      }

      .cls-63 {
        fill: #11577b;
      }

      .cls-64 {
        fill: #a66d29;
      }
    </style>
  </defs>
  <g id="Layer_1-2" data-name="Layer 1">
    <g class="cls-26">
      <path class="cls-30" d="M103.12,45.78s-15.47,14.51-15.59,15.02.96,1.79,1.47,2.24.7,0,1.34,0,14.64-14.96,15.08-14.76,7.48,7.93,7.8,8.05.83.06.96-.32-7.35-7.93-7.48-8.18,3.96-4.41,4.22-4.47.58,0,.58,0l.96-.03.19-.29s3.2,3.52,3.52,3.45.7-.77.7-.77c0,0-3.07-3.28-3.32-3.36s.45-.6.38-.98-.38-1.41-.38-1.41l3.96-3.9s3.2,2.94,3.43,3.11.49.19.7,0,.4-.43.26-.62-3.37-3.11-3.41-3.24,5.05-5.24,5.18-5.22,3.24,2.85,3.45,3,.83-.15.85-.38-3.22-3.22-3.47-3.32.94-1.04,1.11-1.19,3.92-4.15,4.11-4.13,3.47,2.83,3.54,2.92.09.15.4-.09.47-.32.47-.58-3.34-2.98-3.41-3.11.13-.32.49-.55.51-.4.53-.51.26-1.21.3-1.36-2.13-2.02-2.28-2.11-.6.62-.62.89-1,1.47-1.11,1.43-3.52-3.07-3.73-3.09-.43.15-.51.45.23.81.45,1.09,2.75,2.11,2.79,2.32.02.4-.21.64-4.45,4.64-4.67,4.64-.28.04-.6-.21-3.07-2.92-3.24-2.98-.53.26-.62.47-.19.28-.04.51,3.56,2.9,3.49,3.05-5.01,5.45-5.24,5.3-3.26-3.41-3.43-3.49-.64.28-.64.45-.11.3.09.66,3.3,2.88,3.22,3.05-3.75,4.28-4.05,4.18-.45-.6-.81-.55-.89.55-1.02.64-.79-.68-1.56-1.47-1.81-1.75-1.94-1.77-.58.15-.64.43,3.17,3.2,3.13,3.47-.19.32-.32.55,0,.66.15.92-3.6,4.05-3.88,4.2-.6.47-.92.09-6.54-6.92-6.71-6.99-.72.34-.66.66,7.2,7.58,7.2,7.58Z"/>
      <path class="cls-44" d="M111.09,38.02l-3,2.22s-.32-.39-.32-.63,1.35-1.57,1.73-1.77.81-.47.98-.34.62.52.62.52Z"/>
      <path class="cls-44" d="M110.95,43.16c.38-.47,2.11-2.75,2.3-2.92s.29-.28.29-.28l.38,1.41s-.37.89-.71,1.21-.89.74-1.07.75-1.19-.17-1.19-.17Z"/>
      <path class="cls-1" d="M96.25,56.6c-.26-.51-2.3-2.88-2.68-2.81s-5.62,5.24-5.82,5.5.32,1.79.58,2.17.77.89,1.21.89,6.71-5.75,6.71-5.75Z"/>
      <path class="cls-25" d="M89.3,58.45c.2.39.49.85.77,1.06s.67.39.67.39l.47.12"/>
      <path class="cls-25" d="M90.38,57.72s.28.49.83.85.79.39.79.39"/>
      <path class="cls-25" d="M91.64,56.44c.33.43,1.2,1,1.4,1.08s.53.2.53.2"/>
      <path class="cls-53" d="M71.05,59.24c.34.72,3.76,5.51,4.2,5.6.71.13,1.13-.56,1.65-.76,4.29-1.68,8.23-4.36,12.72-5.6-.4,2.13,1.11,1.71,1.02,4.58-3.42,1.95-6.57,4.54-10.05,6.36-.92.48-6.06,2.88-6.74,2.8-.05,0-.41-.33-.76-.51-1.04-.54-4.38-4.25-5.34-5.34-.16-.18-.26-.47-.51-.76-1.65-1.95-3.14-3.99-4.58-6.1.16-2.5-.78-4.96.25-7.38,2.68-1.39,6.31,1.22,7.38,3.69.41.94.28,2.41.76,3.43Z"/>
      <path class="cls-32" d="M79.96,38.38c.05.29-.25.24-.25.25-1.77-.8-5.86,3.57-6.23,3.56-.21,0-1.53-2.9-3.31-2.03-2.38,1.15.13,3.95.13,4.2,0,.22-1.99,3.43-2.29,3.82-.52.67-1.36,1.16-2.03,1.91-.05.05-.92.49-1.02.89,3.1.26,4.05,2.04,5.85,4.07.21.23.68,1.82.76,1.91l-.51,2.29c-.48-1.02-.36-2.5-.76-3.43-1.07-2.47-4.7-5.08-7.38-3.69-.51.26-.76.78-1.27,1.02.01-.87.2-.84.25-1.27,3.77-1.2-.59-.56,1.78-2.67-.03-.06-1.23.33-1.27.38-.68-.1-.42-.87-.51-1.02.35-1.9-2.49-3.77,0-3.69-.28-.21-1.52-.38-1.78-.38l-1.65-1.27c1.25.86,3.3,1.24,4.45.13-1.58.15-3.09.44-4.32-.76l1.91.38c-1.32-1.16.85-1.26,1.65-2.29,5.54-.47,12.34-1.35,17.8-2.29Z"/>
      <path class="cls-10" d="M43.33,119.52c-.2-.14-.51-.59-.76-.76.41-.75,1.01-1.37,1.53-2.03,1.36-1.74,8.51-9.65,8.9-10.56.82-1.88,1.12-9.24,1.53-11.83.36-2.28,1.07-4.55,1.27-6.87.38.76,2.25,2.99,2.29,3.18.18.79-2.16,15-2.54,16.02-1.36,3.58-9.59,9.58-12.21,12.84Z"/>
      <path class="cls-49" d="M79.96,38.38c-5.46.93-12.27,1.82-17.8,2.29-1,.08-5.82,1-6.1-.13-.11-.64.69-.58.76-.64,2.73-.2,5.32-2.71,8.01-3.31,2.85-.63,11.69-1.82,14.62-2.03,2.66-.2,6.13.29,8.65,1.14.5,1.43-7.1,2.49-8.14,2.67Z"/>
      <path class="cls-49" d="M76.39,28.72l1.53,5.34c-2.25-.16-11.22,1.14-12.08.76-1.07-.47.39-3.93.13-4.83,1.15-1.27,8.7-1.98,10.43-1.27Z"/>
      <path class="cls-58" d="M77.92,34.06c.37.03.83.18,1.27.25.18.03.28.03.25.25-2.94.22-11.78,1.41-14.62,2.03-2.69.59-5.28,3.1-8.01,3.31,1.3-1.07,6.43-2.74,7.12-3.69.77-1.05.99-5.08,2.03-6.23.27.9-1.2,4.36-.13,4.83.86.38,9.84-.93,12.08-.76Z"/>
      <path class="cls-34" d="M95.43,58.15c.14-.22.32-.47.43-.43.23.07.19,1.43-.36,2.57-.78,1.63-2.6,2.12-3.33,2.51-.07.04-.72-.2-1.53.25.07-2.16-.77-2.46-1.02-3.38-.14-.51-.05-.93,0-1.2.27-1.61,1.69-2.78,2.03-3.05-.48.93-.44,2.01.13,2.8.05.07.94,1.27,2.22,1.02.9-.18,1.35-.95,1.43-1.08Z"/>
      <path class="cls-53" d="M70.04,51.35c.76.35,1.46.22,1.53.25,2.18,1.19,2.48,4,3.31,6.1-.38,1.19-2.92-.36-3.31-.76-.08-.09-.56-1.68-.76-1.91-1.8-2.03-2.75-3.81-5.85-4.07.1-.4.97-.84,1.02-.89,1.41-.58,2.56.58,4.07,1.27Z"/>
      <path class="cls-58" d="M74.87,57.71c.8,2.04,1.87,4.11,2.03,6.36-.53.21-.94.89-1.65.76-.44-.09-3.86-4.88-4.2-5.6l.51-2.29c.39.41,2.93,1.95,3.31.76Z"/>
      <path class="cls-58" d="M72.32,72.97c-.12.3.04,2.46,0,2.67s-.47.05-.51.25c-.63,3.68.15,7.59,0,11.7l-1.02.64c-.08-.02-.17.02-.25,0-.11-.52-1.1-.12-1.27-.25-.57-.43,0-2.48-.38-2.8l-2.16,2.29c-.95-.25-1.86-.51-2.8-.76l.13-3.05-1.4,2.8c-.67-.19-1.37-.32-2.03-.51l.13-3.05c-.93.74-.54,2.66-2.16,2.29-.53-.17-1.01-.34-1.53-.51l.38-3.05-.89,3.05c-.39-.13-.79-.17-1.02-.25-.26-.09-.51-.17-.76-.25s-.53-.17-.76-.25l1.14-4.58-2.42,4.07c-.18-.09-.99-.02-1.27-.38.2-.42.19-1.93.25-2.16.07-.26,2.04-4.4,2.29-4.83,4.6-2.38,9.71-4.4,12.97-8.65l5.34,5.6Z"/>
      <path class="cls-9" d="M55.54,84.42c.84,2.23,2.14,4.33,3.56,6.23,2.6,3.47,14.57,14.74,15.26,17.3,1.36,5.06-.57,18.34,0,24.67.06.68-.14.69.51,1.14-.5.22-1.05-.25-1.27-.25.23-1.02-.2-2.09-.25-3.05,0-.17,0-.34,0-.51l.25-22.76-11.32-11.83.13,1.4-3.43-4.96c-.99-.09-2.12,11.87-2.42,13.1-1.52,6.19-9.02,9.92-12.46,15.13-.24-.18-.51-.33-.76-.51,2.61-3.27,10.85-9.27,12.21-12.84.39-1.02,2.73-15.23,2.54-16.02-.04-.19-1.91-2.42-2.29-3.18-.5-1-.99-2.15-1.02-3.31.25.09.5.16.76.25Z"/>
      <path class="cls-39" d="M54.01,83.91c-.42-.16-.87-.31-1.27-.51l2.42-4.07-1.14,4.58Z"/>
      <path class="cls-2" d="M73.85,72.21l-1.53,16.28c-.63.15-1.03-.12-1.53-.25l1.02-.64c.15-4.11-.63-8.02,0-11.7.04-.21.47-.05.51-.25s-.12-2.37,0-2.67c.03-.08,1.15-.05.76-1.27.35.18.72.5.76.51Z"/>
      <path class="cls-5" d="M67.75,66.36c-.66.26-.61.82-.76,1.02-3.26,4.24-8.37,6.27-12.97,8.65.19-.33-.1-.53.51-1.02,1.29-1.03,5.23-2.32,6.99-3.56,1.94-1.37,3.29-2.96,4.71-4.83.19-.25.73-.82,1.02-1.02.25.29.35.58.51.76Z"/>
      <path class="cls-57" d="M73.09,71.7c.39,1.22-.73,1.19-.76,1.27l-5.34-5.6c.15-.19.1-.76.76-1.02.96,1.09,4.3,4.8,5.34,5.34Z"/>
      <path class="cls-57" d="M62.66,59.49c1.44,2.12,2.92,4.15,4.58,6.1-.28.2-.83.77-1.02,1.02-.71-2.06-3.57-4.79-4.07-6.74-.17-.66.26-.6.25-.64-.04.29.24.24.25.25Z"/>
      <path class="cls-52" d="M62.66,59.49s-.3.04-.25-.25c-.22-.98-.7-3.3-.76-4.2-.02-.34.52-1.15.51-1.53,0-.21-.51-.1-.51-.13,0-.08,0-.17,0-.25.51-.24.76-.75,1.27-1.02-1.03,2.41-.09,4.88-.25,7.38Z"/>
      <path class="cls-58" d="M62.41,59.24s-.42-.02-.25.64c.5,1.95,3.36,4.68,4.07,6.74-1.41,1.87-2.76,3.47-4.71,4.83-1.76,1.24-5.71,2.53-6.99,3.56,1.88-7.37,3.65-14.84,7.12-21.62,0,.03.5-.08.51.13,0,.37-.53,1.19-.51,1.53.06.9.55,3.21.76,4.2Z"/>
      <path class="cls-40" d="M61.9,51.86c.08-.66,0-1.75.51-2.29.05-.05,1.24-.44,1.27-.38-2.37,2.11,1.99,1.47-1.78,2.67Z"/>
      <path class="cls-54" d="M42.57,118.75c.25.17.56.62.76.76.25.18.52.33.76.51,1.37,1,2.71,2.04,4.07,3.05-.4.35-1.34.41-1.27,1.53-.11-.05-.41.05-.51,0-1.25-.63-2.91-2.13-4.07-3.05-1.09-.86-1.14-1.12-2.54-1.78-.02,0,.04-.3-.25-.25.35-.69.53-1.48,1.14-2.03.83.15,1.27.84,1.91,1.27Z"/>
      <path class="cls-10" d="M56.56,84.67c.13.04.38-.04.51,0,.51.17,1,.34,1.53.51.66.21,1.35.57,2.03.76.67.19,1.36.32,2.03.51.47.13.86.14,1.27.25.94.26,1.84.52,2.8.76.86.22,1.7.31,2.54.51.44.1.87.15,1.27.25.08.02.18-.02.25,0,.5.14.89.41,1.53.25l6.36,16.15c-.01,4.17-.1,8.45-.25,12.84-.2,5.52-.51,10.87-.91,16.02-1.27.28-2.73.45-3.12-.19-.17-.28-.04-.61-.05-.7-.57-6.33,1.36-19.61,0-24.67-.69-2.56-12.66-13.82-15.26-17.3-1.42-1.9-2.72-4-3.56-6.23.23.08.63.12,1.02.25Z"/>
      <path class="cls-34" d="M79.7,38.64c-.15.57-.29.98-.51,1.53-.62-.29-2.06.39-2.54.89l2.8-.64c-1.37,2.8,2.49,6.58-1.27,7.12-1.07.15-1.61-.2-2.54-.38l1.78,2.16c-1.05,1.52-1.35,1.56-3.05,1.27-2.08-1.03-3.3-1.97-4.71-3.82l.38,4.58c-1.51-.69-2.66-1.85-4.07-1.27.68-.75,1.52-1.24,2.03-1.91.3-.39,2.29-3.59,2.29-3.82,0-.24-2.51-3.04-.13-4.2,1.78-.86,3.1,2.03,3.31,2.03.37.01,4.46-4.36,6.23-3.56Z"/>
      <path class="cls-55" d="M74.36,50.59c-.93-.16-1.66-.48-2.42-1.02l-.38,2.03c-.07-.04-.77.09-1.53-.25l-.38-4.58c1.41,1.85,2.63,2.79,4.71,3.82Z"/>
      <path class="cls-55" d="M78.17,47.54c-.07.71-.37,1.21-.76,1.78l-1.78-2.16c.93.18,1.47.54,2.54.38Z"/>
      <path class="cls-16" d="M79.19,40.16c.1.05.29-.03.25.25l-2.8.64c.49-.5,1.92-1.18,2.54-.89Z"/>
      <path class="cls-37" d="M78.05,41.43c1.25-.12.14,1.26,0,1.27-.28.03-1.13-1.17,0-1.27Z"/>
      <path class="cls-27" d="M69.27,87.98c-.84-.2-1.68-.28-2.54-.51l2.16-2.29c.39.31-.19,2.37.38,2.8Z"/>
      <path class="cls-27" d="M60.63,85.94c-.68-.2-1.38-.56-2.03-.76,1.62.37,1.23-1.55,2.16-2.29l-.13,3.05Z"/>
      <path class="cls-27" d="M63.93,86.71c-.41-.11-.8-.12-1.27-.25l1.4-2.8-.13,3.05Z"/>
      <path class="cls-39" d="M57.06,84.67c-.13-.04-.38.04-.51,0l.89-3.05-.38,3.05Z"/>
      <path class="cls-51" d="M70.54,88.23c-.4-.1-.83-.15-1.27-.25.18.13,1.17-.27,1.27.25Z"/>
      <path class="cls-10" d="M73.34,129.94c-.1-2.28.11-4.59,0-6.87-.06-1.37-.17-2.71-.25-4.07-.21-3.26-.75-6.5-.51-9.79l-10.05-11.57-2.42,12.34c-.62,1.67-10.1,11.51-11.95,13.1-1.36-1.01-2.7-2.05-4.07-3.05,3.44-5.21,10.95-8.94,12.46-15.13.3-1.23,1.43-13.19,2.42-13.1l3.43,4.96-.13-1.4,11.32,11.83-.25,22.76Z"/>
      <path class="cls-18" d="M61.9,48.55c.09.14-.18.92.51,1.02-.5.53-.43,1.63-.51,2.29-.05.43-.24.4-.25,1.27,0,.08,0,.17,0,.25-3.48,6.78-5.24,14.25-7.12,21.62-.61.48-.32.69-.51,1.02-.25.43-2.21,4.58-2.29,4.83-2.02-.59-5.15-2.56-7.12-2.8-.9-.83-.78-1.27-1.02-2.29,1.04,1.59,4.75,2.87,6.49,2.29,1.28-.43,4.12-14.41,6.23-16.15-1.18-.17-1.6.75-3.18.64-1.14-.08-4.41-2.1-4.83-2.03-.65.1-1.97,1.83-.38,2.8h-.76c-.17,0-.35.02-.51,0-.25-.04-.28-.26-.51-.25.68-1.32,1.58-2.51,2.29-3.82.39.28,3.14.64,3.69.51,2.91-.72,5.49-13.36,7.12-13.73.63-.14,2.39,2.1,2.67,2.54Z"/>
      <path class="cls-39" d="M60.12,44.49c.26,0,1.5.17,1.78.38-2.49-.08.35,1.79,0,3.69-.28-.44-2.05-2.69-2.67-2.54-1.63.37-4.21,13.02-7.12,13.73-.55.13-3.3-.23-3.69-.51-2.03-1.45.12-6.96,1.27-8.77,1.76-2.77,5.26-4.97,8.39-5.72.79-.19.46-.25.51-.25.08-.01,1.31,0,1.53,0Z"/>
      <path class="cls-6" d="M43.58,75.77c-1.12-4.8.36-8.48,2.54-12.72.22-.01.25.22.51.25-.23,3.23-5.3,11.22.13,11.95,3.42.46,3.28-1.77,4.45-4.07.9-1.77,1.78-3.53,2.29-5.47-.18-.8-4.61-1.81-5.6-2.42-1.59-.97-.26-2.7.38-2.8.42-.07,3.69,1.95,4.83,2.03,1.58.12,2-.81,3.18-.64-2.11,1.74-4.95,15.72-6.23,16.15-1.73.58-5.45-.7-6.49-2.29Z"/>
      <path class="cls-15" d="M47.91,63.31c.99.6,5.41,1.62,5.6,2.42-.51,1.94-1.39,3.7-2.29,5.47l.13-1.78-1.4,1.27c.03-.2.04-.94,0-1.02,2.11-.77-2.97-1.31-3.31-2.03.27-1.31.62-2.97.51-4.32h.76Z"/>
      <path class="cls-15" d="M47.15,63.31c.11,1.35-.24,3.01-.51,4.32-.05.24.05.53,0,.76-.1.47-1.35,2.17-1.02,2.92l1.02-.25-.38,1.91,1.14-.76c-.18.42-.47.8-.13,1.27l.89-1.53c.34.14.61.63.89.51.09-.04.88-1.68.89-1.78l1.4-1.27-.13,1.78c-1.18,2.3-1.03,4.53-4.45,4.07-5.42-.73-.36-8.73-.13-11.95.16.02.34,0,.51,0Z"/>
      <path class="cls-46" d="M49.94,69.67c.04.07.03.82,0,1.02-.01.1-.8,1.74-.89,1.78-.29.12-.55-.37-.89-.51-.07-.03-.06-1.36-.76.25l-1.14.76.38-1.91-1.02.25c-.33-.75.92-2.45,1.02-2.92.71.26,3,.7,3.31,1.27Z"/>
      <path class="cls-18" d="M49.94,69.67c-.31-.58-2.6-1.02-3.31-1.27.05-.24-.05-.53,0-.76.34.72,5.41,1.26,3.31,2.03Z"/>
      <path class="cls-48" d="M48.16,71.95l-.89,1.53c-.34-.47-.06-.86.13-1.27.71-1.61.69-.28.76-.25Z"/>
      <path class="cls-62" d="M79.19,34.31c-.45-.07-.9-.23-1.27-.25l-1.53-5.34c1.45.59,2.25,4.08,2.8,5.6Z"/>
      <path class="cls-12" d="M58.59,44.49s.28.06-.51.25l-.13-1.02.64.76Z"/>
      <path class="cls-61" d="M10.27,127.15c-1.74-.64-9.71-9.29-7.63-11.45l16.28,11.32c-1.86-1.13-7.75.45-8.65.13Z"/>
      <path class="cls-61" d="M7.72,115.96c6.49,1.98,9.88,8.99,15.77,12.21-4.29-1.85-9.36-4.85-13.61-7.63-2.28-1.49-4.54-3.17-6.49-5.09,1.5-.39,2.85.06,4.32.51Z"/>
      <path class="cls-3" d="M44.09,116.72c-.52.67-1.11,1.29-1.53,2.03-.63-.43-1.08-1.13-1.91-1.27-.61.55-.79,1.35-1.14,2.03-.14.28-.97.9-.25,1.27-.37.7-1.32,2.15-2.29,1.78-.09-.75-.62-1.97-.76-2.8.24-.1,1.03-.67,1.27-.89.86-.76,4.44-4.92,5.09-6.1.16-.3.63-.54-.13-.64-.55.53-2.42,2.21-3.05,2.29-1.63.21-1.48-1.39-3.18.64-1.41,1.67-.84,3.01-1.02,4.96-.19,2.07-.48,4.29,0,6.36-.69.46-1.23.63-2.03.76.05-.41-.05-.86,0-1.27.13-1.09.88-7-.13-7.12-.85-.11-1.17,2.41-3.94-1.27-1.73-2.3-4.14-9,1.02-7.12.2.38.49.72.51.76.62,1.25,1.84,2.67,2.29,3.94s-.29,3.3,1.14,3.69l.89-3.94c.22-.27.59.43.64.38,2.14-2.07,1.17-4.13,2.92-6.36,1.16-1.47,4.9-3.62,6.36-1.91.54.64.2,1.71.25,1.78.43.64,1.04.12,1.53.76.81,1.08-3.18,5.46-2.54,7.25Z"/>
      <path class="cls-3" d="M37.99,108.33c-.08.18-1.56,1.22-1.78,1.65-.79,1.54-.68,3.22-1.91,4.45-1.16.33-3.12-2.75-3.43-3.56-3.29-8.38,3.47-8.52,4.58-.89l.51-.25c2.12-3.07-.77-5.98-.25-8.9s4.6-1.74,4.83.25c.21,1.78-2.25,3.49-2.54,4.58-.18.66.57,1.42,0,2.67Z"/>
      <path class="cls-45" d="M38.5,108.83c-1.76,2.22-.79,4.29-2.92,6.36-.05.05-.41-.65-.64-.38l-.89,3.94c-1.44-.39-.7-2.42-1.14-3.69s-1.67-2.69-2.29-3.94l.25-.25c.32.81,2.27,3.89,3.43,3.56,1.23-1.23,1.11-2.91,1.91-4.45.22-.44,1.7-1.48,1.78-1.65l.51.51Z"/>
      <path class="cls-3" d="M33.41,133.25c.08.16,1.39,1.51.89,1.78l-14.12.25c-6.76-.03-12.95-.07-19.33-.51,6.56.06,13.22-.5,19.71-1.02.53-1.93.64-.31,1.02-.25,3.87.6,7.96.17,11.83-.25Z"/>
      <path class="cls-56" d="M32.14,125.11c.09.51-.13,1.35,0,1.78-.8,1.42-2.44,1.59-3.05,0,.31-2.18.18-5.42,0-7.63,1.23,1.65,1.98,4.26,3.05,5.85Z"/>
      <path class="cls-4" d="M3.4,115.45c1.95,1.91,4.21,3.6,6.49,5.09,4.25,2.78,9.32,5.78,13.61,7.63,1.56.67,2.14,1.75,3.82,1.53.48-.06.16.07.51-.25.66-.61,1.14-1.58,1.27-2.54.61,1.59,2.26,1.42,3.05,0,.01.04.63.44.76.51-.04.26-.71.86-.76,1.14-.32,1.79.53,3.18,1.27,4.71-3.87.42-7.96.85-11.83.25-.38-.06-.49-1.68-1.02.25-6.49.52-13.15,1.08-19.71,1.02-.47-.03-.56-.24-.76-.25-.78-2.42,3.66-1.64,4.71-2.03.18-.07,1.65-2.46,2.29-3.05.94-.87,2.41-1.19,3.18-2.29.89.33,6.79-1.26,8.65-.13l-16.28-11.32c.38-.4.41-.16.76-.25Z"/>
      <path class="cls-20" d="M12.17,129.69c.21,2.48-6.64,5.52-6.1,1.78,1.25,3.01,5.19.14,6.1-1.78Z"/>
      <path class="cls-20" d="M33.16,125.87c-.05.41.05.86,0,1.27-.04.34-.25.24-.25.25-.13-.06-.75-.46-.76-.51-.13-.43.09-1.27,0-1.78.22.33.5.84,1.02.76Z"/>
      <path class="cls-20" d="M27.31,129.69c-1.68.22-2.26-.85-3.82-1.53-5.89-3.22-9.28-10.23-15.77-12.21.97-5.49-1.1-10.18-.76-15.51.97,1.63,3.9,2.19,4.83,3.18,1.56,1.66,3.11,6.83,5.09,8.65-.05.71-5.47-1.21-5.98-1.4-.38-.14-3.77-2.51-2.42-.64.59.82,7.13,2.59,8.52,2.92l3.43,5.21c-.29.47-.68.21-1.14.13-1.97-.36-7.48-2.7-8.77-4.2l-1.4-2.67c.16,2.49,2.25,4.31,4.32,5.34,1.67.83,6.31,1.61,7.38,2.29,1.28.82,4.85,8.9,6.49,10.43Z"/>
      <path class="cls-20" d="M9.76,93.57c1.31-.03,3.08.58,4.32,1.02l-.25,10.05c-.56.76-3.24-3.79-3.82-4.45-.14-.25-.13-.78-.64-1.02-.47.67.6.97.64,1.02.36.64.55,1.64,1.27,2.16-.42.81-3.6-2.04-4.32-2.16.1-1.2,1.09-6.53,2.16-6.87.03-.01.14.27.64.25Z"/>
      <path class="cls-20" d="M30.1,110.36c-5.15-1.88-2.75,4.82-1.02,7.12-.64.43-.04,1.26,0,1.78.18,2.21.31,5.45,0,7.63-.14.97-.61,1.93-1.27,2.54-.28-1.52-4.22-6.41-4.07-7.5.12-.9,3.8-4.72,4.07-6.1l-4.45,5.72c-.49-.84-3.95-6.08-3.94-6.49,0-.48,3.22-6.97,3.56-8.9.3-1.71.36-3.76,0-5.47,3.78,3.62,4.69,5.14,7.12,9.67Z"/>
      <path class="cls-20" d="M22.73,100.44c.36,4.9-1,9.93-3.69,13.99-.5-1.65-5.1-7.45-5.21-8.52-.04-.4.75-3.03.76-3.82.05-2.4.13-4.87-.25-7.25,4.01,1.54,5.34,2.75,8.39,5.6Z"/>
      <path class="cls-43" d="M10.01,100.19s-1.11-.34-.64-1.02c.51.24.49.77.64,1.02Z"/>
      <path class="cls-45" d="M33.16,125.87c-.52.08-.8-.44-1.02-.76-1.08-1.59-1.82-4.2-3.05-5.85-.04-.52-.64-1.35,0-1.78,2.77,3.68,3.09,1.17,3.94,1.27,1.01.13.26,6.03.13,7.12Z"/>
      <path class="cls-45" d="M36.21,119.77c-.21.09-.67-.09-1.02.25.18-1.95-.39-3.29,1.02-4.96,1.7-2.02,1.55-.43,3.18-.64.63-.08,2.5-1.76,3.05-2.29.76.1.29.34.13.64-.64,1.18-4.23,5.34-5.09,6.1-.24.22-1.04.79-1.27.89Z"/>
      <path class="cls-20" d="M36.21,119.77c.15.83.67,2.05.76,2.8.26,2.1.19,2.5-1.78,3.82-.48-2.07-.19-4.29,0-6.36.35-.34.81-.17,1.02-.25Z"/>
      <path class="cls-20" d="M39.77,119.77c-.34.22-.33.68-.51,1.02-.72-.37.11-.99.25-1.27.29-.04.24.25.25.25Z"/>
      <path class="cls-50" d="M42.57,128.93c.97.63,1.73,1.53,2.29,2.54-.07.02-.5.86-1.02,1.02-1.58.48-3.12.4-4.71.76l.38,1.53s.03.75-.51.76c-.75-1.65-3.17-5.29-2.8-6.99.07-.33,1.66-1.91,2.03-2.42.95.52,1.55,1.71,2.42,2.29.68.46,1.82.45,1.91.51Z"/>
      <path class="cls-41" d="M45.87,133.76c-.43.22-1,.93-1.4,1.02-1.17.25-4.11-.32-4.96,0l-.38-1.53c1.58-.37,3.13-.28,4.71-.76l2.03,1.27Z"/>
      <path class="cls-14" d="M75.13,133.5c.22,0,.76.47,1.25.25h.25c-.15.9-.07,2.88-.25,4.07-2.45-.14-4.79.31-5.24-2.8.11-.03,1.12-1.05,1.99-1.27.64-.16,1.33-.27,1.99-.25Z"/>
      <path class="cls-14" d="M83.77,137.83h-8.14c.26-1.35.5-2.71.76-4.05l1.27-.27c.53,1.83,6.04,1.36,6.61,3.11.3.92-.49,1.15-.51,1.22Z"/>
      <path class="cls-46" d="M46.38,124.6c-1.86,1.71-3.73,3.41-5.59,5.12-2.87,1.07-5.16,1.01-5.53.22-.36-.75.9-2.37,2.98-3.82,1.25-1.68,2.68-3.04,4.07-4.58,1.16.92,2.82,2.42,4.07,3.05Z"/>
      <path class="cls-14" d="M42.31,121.55c-2.28,1.89-2.98,3.6-3.18,4.83-.1.59-.01.69-.16,2.32-.29,3.12-.62,3.09-.47,4.11.28,2.02,1.6,2.38,1.53,4-.05,1.1-.71,1.97-1.27,2.54-1.05-.63-3.67-3.98-3.94-4.07-1.48-.49-12.11.01-14.62,0l14.12-.25c.5-.27-.81-1.62-.89-1.78-.74-1.53-1.59-2.92-1.27-4.71.05-.28.72-.88.76-1.14,0-.02.21.09.25-.25.8-.13,1.34-.3,2.03-.76,1.97-1.31,2.04-1.71,1.78-3.82.97.37,1.91-1.08,2.29-1.78.18-.34.17-.8.51-1.02,1.4.66,1.46.92,2.54,1.78Z"/>
      <path class="cls-54" d="M74.23,125.4c.18-.01.48.08.63.08.18,0,.36-.03.54-.04.99-.03,2-.04,2.99-.06-.06.31-.47.67-.04,1.17-.07.02-.17.17-.24.18-.81.16-2.12.07-2.99.06-.82,0-.93-.1-1.82.1-.01,0-.09-.15-.21-.03-.09-.45-.29-.88-.21-1.36.44-.23.89-.07,1.34-.1Z"/>
      <path class="cls-46" d="M78.36,126.55c-.31,2.44-.61,4.89-.92,7.33-.51.14-1.32.28-2.31.17-.76-.08-1.37-.29-1.8-.47.02-1.26,0-2.58-.06-3.96-.04-.95-.1-1.87-.17-2.76.92-.13,1.91-.23,2.98-.28.8-.04,1.56-.05,2.28-.03Z"/>
      <g>
        <path class="cls-38" d="M648.71,40.36c.6-.04-.44,1.98-.49,2.36-.39,2.92,1.37,6.85,4,8.28,2.2,1.2,3.93.86,6.25.33.6.37-2.35,1.18-2.63,1.21-5.29.57-9.35-5.08-8.28-10.04.06-.29.94-2.13,1.15-2.14Z"/>
        <path class="cls-38" d="M646.29,39.37c.28-.04.13.21.11.33-.12.65-.89,1.76-1.04,2.69-.99,5.91,3.55,12.84,9.93,12.45,1.06-.06,2.44-.8,3.18-.88.16-.02.4,0,.22.22-9.18,4.79-17.72-6.85-12.4-14.81Z"/>
        <path class="cls-38" d="M651.34,41.13c.19-.02.27.19.38.27-1.67,2.28.26,6.77,3.02,7.19.51.08,1.53.02,2.08,0,.35-.02,1.79-.7,1.59.16-4.17,3-9.11-1.52-8.01-6.14.06-.26.68-1.46.93-1.48Z"/>
        <path class="cls-38" d="M654.08,41.57c.96-.22-.02,1.44-.05,1.81-.14,1.53.81,2.68,2.36,2.47.42-.06,1.78-1.22,1.7-.16-.09,1.13-3.25,1.21-4.17.22-.84-.91-1.03-4.06.16-4.33Z"/>
        <path class="cls-23" d="M691.98,38.17c1.28.9-.23,1.46-.82,2.41-.27-.33-1.67-1.26-1.59-1.7.03-.17,1.21-1.09,1.15-1.48l-1.54,1.43c-.14-.24-1.48-1.38-1.48-1.48,0-.16,1.51-1.42,1.15-1.59l-1.32,1.43c-.1,0-1.46-1.27-1.48-1.37-.09-.51,1.1-.88.93-1.48-1.34,1.7-1.32,1.14-2.69-.16l1.26-1.59c-.33.06-1.42,1.43-1.54,1.43s-1.34-1.4-1.7-1.48l1.37-1.59c-.93.18-1.26,1.92-2.19.99-.06.21.49.51.49.6,0,.11-1.48,1.59-1.59,1.59-.09,0-1.01-1.07-1.26-1.15.7-.8,1.43-1.62,2.19-2.36.19-.19.91-1.12,1.15-1.1,3.12,2.94,6.32,5.78,9.49,8.67Z"/>
        <path class="cls-23" d="M684.2,45.19l.22.38-.33-.05c-3.04-2.76-6.15-5.44-9.22-8.17.22-.27.43-.55.66-.82.95-1.15,2.48-2.22,3.46-3.4.09,0,1.25,1.07,1.26,1.15.01.11-1.37,1.58-1.48,1.59-.19.02-.59-.61-.82-.6,1.39,1.3-.43,1.48-1.04,2.69l-1.04-.6,8.34,7.84Z"/>
        <path class="cls-23" d="M692.86,39.05c.63.58,1.24,1.18,1.86,1.76,0,.15-.11.11-.22.11-.5,0-1.26,1.43-1.48,1.43-.12,0-1.69-1.47-1.7-1.59s1.26-1.58,1.54-1.7Z"/>
        <path class="cls-23" d="M696.37,42.34l-1.59,1.65c-.12-.3-1.59-1.37-1.59-1.48s1.22-1.31,1.32-1.59c.11,0,.22.04.22-.11.55.51,1.1,1.03,1.65,1.54Z"/>
        <path class="cls-24" d="M681.34,30.6c-.76.74-1.5,1.55-2.19,2.36.26.08,1.18,1.15,1.26,1.15.11,0,1.59-1.48,1.59-1.59,0-.09-.55-.4-.49-.6.94.93,1.27-.81,2.19-.99l-1.37,1.59c.36.08,1.59,1.48,1.7,1.48s1.2-1.37,1.54-1.43l-1.26,1.59c1.37,1.3,1.35,1.87,2.69.16.17.6-1.02.97-.93,1.48.02.1,1.38,1.38,1.48,1.37l1.32-1.43c.36.17-1.15,1.43-1.15,1.59,0,.1,1.34,1.24,1.48,1.48l1.54-1.43c.05.39-1.12,1.31-1.15,1.48-.08.44,1.32,1.37,1.59,1.7.59-.95,2.11-1.51.82-2.41.33.3.59.61.88.88-.28.12-1.55,1.59-1.54,1.7s1.58,1.59,1.7,1.59c.22,0,.98-1.42,1.48-1.43-.1.28-1.32,1.49-1.32,1.59,0,.11,1.47,1.18,1.59,1.48l1.59-1.65s.07-.03.22.11c-.31.11-1.57,1.66-1.54,1.81.02.09,1.38,1.27,1.48,1.26.19-.02.91-1.28,1.32-1.32-1.64,1.88-1.09,1.51.44,3.07l1.54-1.54c-.33,1.22-2.04,1.41-.49,2.47-.47.23-.63-.61-1.04-.49-.11.03-1.48,1.59-1.48,1.7,0,.1.77.63.77.88l-.93-.6-3.18,3.62-9.27-8.12-8.34-7.84,1.04.6c.61-1.21,2.43-1.39,1.04-2.69.24,0,.64.62.82.6.11,0,1.49-1.48,1.48-1.59,0-.08-1.17-1.16-1.26-1.15-.98,1.18-2.5,2.25-3.46,3.4.28-.96,2.33-1.63,1.54-2.52.84.48.65-.13,1.43-.71.05-.45-1.95-1.19-1.04-1.37.34-.07,1.12.97,1.32.99.34.04.8-.87.93-.99.5-.45,1.09-.92,1.65-1.32Z"/>
        <path class="cls-23" d="M686.12,42.89c.16.31,1.69,1.45,1.7,1.59.03.24-1.48,1.45-1.48,1.92l1.65-1.76c.2.27,1.68,1.42,1.7,1.59.02.18-1.37,1.66-1.59,1.92l-3.68-3.24,1.7-2.03Z"/>
        <path class="cls-23" d="M691.71,48.04c.17.26,1.59,1.33,1.59,1.48,0,.12-1.57,1.43-1.48,1.92l1.65-1.76c.11-.02,1.59,1.37,1.59,1.48.01.22-1.47,1.51-1.59,1.92l-3.46-3.13,1.7-1.92Z"/>
        <path class="cls-23" d="M680.8,41.46c-.56-.5-1.2-.97-1.76-1.48-.11-.39,1.3-1.67,1.59-2.03l1.7,1.48c.02.29-1.64,1.46-1.54,2.03Z"/>
        <path class="cls-23" d="M684.25,41.35c.23-.04,1.7,1.37,1.7,1.48,0,.13-1.57,1.58-1.7,1.92l-1.7-1.59,1.7-1.81Z"/>
        <path class="cls-23" d="M680.8,41.46l1.7-1.86c.23.16,1.58,1.37,1.59,1.48.02.23-1.43,1.57-1.59,1.92-.22.05-1.47-1.33-1.7-1.54Z"/>
        <path class="cls-23" d="M689.96,46.4c.17.3,1.61,1.41,1.59,1.59-.01.12-1.58,1.82-1.7,1.81l-1.59-1.48,1.7-1.92Z"/>
        <path class="cls-23" d="M696.54,45.96l1.7,1.48-1.48,1.81c-2.03-1.42-2.01-1.61-.22-3.29Z"/>
        <path class="cls-23" d="M689.3,39.26c.11-.01,1.69,1.37,1.7,1.48.02.21-1.26,1.55-1.48,1.81-.12.01-1.7-1.47-1.7-1.59s1.33-1.44,1.48-1.7Z"/>
        <path class="cls-23" d="M693.14,42.67c.14.3,1.58,1.37,1.59,1.48.02.19-1.28,1.54-1.48,1.81-.18.02-1.69-1.37-1.7-1.48,0-.12,1.37-1.6,1.59-1.81Z"/>
        <path class="cls-23" d="M682.06,32.68c.38-.07,1.42,1.19,1.81,1.37l-1.48,1.7-1.7-1.48c.16-.23,1.27-1.57,1.37-1.59Z"/>
        <path class="cls-23" d="M687.54,37.62c.16-.02,1.46,1.29,1.7,1.48l-1.59,1.81c-.17-.25-1.58-1.48-1.59-1.59s1.37-1.69,1.48-1.7Z"/>
        <path class="cls-23" d="M691.88,41.57c.38.29.71.64,1.1.93l-1.59,1.81c-.24-.17-1.69-1.47-1.7-1.59,0-.09,1.04-1.24,1.21-1.37-.07.32.71.27.99.22Z"/>
        <path class="cls-23" d="M684.03,34.33c.22.16,1.58,1.27,1.59,1.37.03.27-1.28,1.49-1.48,1.81l-1.59-1.48,1.48-1.7Z"/>
        <path class="cls-23" d="M680.41,34.44l1.81,1.59c-.4.12-1.25,1.45-1.48,1.48-.35.05-1.41-1.3-1.81-1.48l1.48-1.59Z"/>
        <path class="cls-23" d="M685.79,35.97c.1-.01,1.58,1.27,1.59,1.37.02.19-1.28,1.54-1.48,1.81l-1.59-1.48c.16-.25,1.37-1.69,1.48-1.7Z"/>
        <path class="cls-23" d="M689.52,42.89c.16.31,1.69,1.45,1.7,1.59.02.16-1.19,1.37-1.37,1.59-.2-.25-1.69-1.43-1.7-1.59,0-.1,1.2-1.38,1.37-1.59Z"/>
        <path class="cls-23" d="M682.28,36.19l1.7,1.48-1.48,1.59c-1.7-1.41-2.03-1.48-.22-3.07Z"/>
        <path class="cls-23" d="M687.65,41.13c.14.32,1.68,1.48,1.7,1.59.02.1-1.27,1.58-1.37,1.59-.11,0-1.68-1.37-1.7-1.48-.04-.2,1.23-1.4,1.37-1.7Z"/>
        <path class="cls-23" d="M694.78,44.42c.21-.06,1.59,1.27,1.59,1.37,0,.11-1.33,1.44-1.48,1.7-2.12-1.32-1.4-1.48-.11-3.07Z"/>
        <path class="cls-23" d="M685.9,39.48c.16.3,1.57,1.33,1.59,1.48.02.2-1.23,1.39-1.37,1.7-.14-.3-1.57-1.37-1.59-1.48-.05-.27,1.16-1.44,1.37-1.7Z"/>
        <path class="cls-23" d="M691.38,44.64l1.7,1.59-1.37,1.59c-.14-.3-1.7-1.47-1.7-1.59,0-.11,1.23-1.35,1.37-1.59Z"/>
        <path class="cls-23" d="M694.89,47.93c1.67,1.38,2.02,1.44.33,3.07-1.56-1.4-2.15-1.43-.33-3.07Z"/>
        <path class="cls-23" d="M684.74,40.36h-.99c-.39-.28-.78-.56-1.1-.93l1.48-1.59,1.59,1.48c.02.22-.81.88-.99,1.04Z"/>
        <path class="cls-23" d="M693.14,46.4c.17-.02,1.59,1.27,1.59,1.37,0,.1-1.15,1.24-1.26,1.48-.21.04-1.59-1.27-1.59-1.37,0-.1,1.11-1.26,1.26-1.48Z"/>
        <path class="cls-23" d="M680.25,37.62c-.02,1.23-2.09.41-2.74,0,.39-.52.76-1,1.26-1.43.43.52,1.13.83,1.48,1.43Z"/>
        <path class="cls-23" d="M680.25,37.62s.31-.08.22.27l-1.7,1.81-1.81-1.59c0-.09.49-.41.55-.49.65.41,2.72,1.23,2.74,0Z"/>
        <path class="cls-23" d="M691.88,41.57c-.28.05-1.06.1-.99-.22.12-.1.18-.42.49-.33.11.02.4.47.49.55Z"/>
        <path class="cls-23" d="M684.74,40.36s-.19.6-.49.55c-.1-.01-.41-.49-.49-.55h.99Z"/>
        <path class="cls-23" d="M696.59,42.45c1.72,1.59,3.5,3.11,5.16,4.77l-7.4,7.4c-3.59-2.76-6.88-6.04-10.26-9.11l.33.05-.22-.38,9.27,8.12,3.18-3.62.93.6c0-.25-.77-.78-.77-.88,0-.11,1.37-1.67,1.48-1.7.41-.12.58.72,1.04.49-1.54-1.06.17-1.25.49-2.47l-1.54,1.54c-1.53-1.56-2.08-1.19-.44-3.07-.41.04-1.12,1.3-1.32,1.32-.1.01-1.46-1.17-1.48-1.26-.04-.16,1.22-1.7,1.54-1.81Z"/>
        <polygon class="cls-22" points="695.44 51.33 695.55 51.44 695.55 51.55 695.44 51.55 695.44 51.33"/>
        <path class="cls-23" d="M660.94,8.88l-1.37,1.65c-.35-.16-1.66-1.21-1.59-1.59.03-.17,1.21-1.09,1.15-1.48l-1.32,1.43c-.13.03-1.68-1.26-1.7-1.37s1.32-1.33,1.26-1.7l-1.43,1.54c-1.44-1.5-1.92-1.05-.44-2.85-1.56,1.62-1.23,1.23-2.8-.16l1.54-1.59c2.26,2.01,4.45,4.11,6.69,6.14Z"/>
        <path class="cls-23" d="M652.82,15.24c2.34,2.1,4.72,4.13,7.13,6.14.31.26,1.57,1.7,1.92,1.65.45-.26,1.23-1.69,1.54-1.86.06-.04.43.25.49.05.02-.08-.33-.2-.33-.22,0-.11,1.37-1.69,1.48-1.7.31-.03.64.84,1.26.88.19.01.27-.01.44.11-.49.55-3.52,4.44-4,4.39-3.5-3.06-6.91-6.21-10.37-9.32l.49.22-.05-.33Z"/>
        <path class="cls-23" d="M666.75,20.29c-.17-.12-.25-.1-.44-.11-.17-.18-1.11-.99-1.1-1.15.01-.1,1.27-1.58,1.37-1.59.29-.03.52.73.93.49-1.42-.97.15-1.38.55-2.41-1.48,1.3-1.26,2.17-2.91.27-.8-.92.58-1.21.93-2.19.47.03,3.22,2.93,3.84,3.35-.99,1.16-2.18,2.2-3.18,3.35Z"/>
        <path class="cls-23" d="M646.02,7.56c-.21.21-.51.34-.6.66l-.99-.99c-.27-.07.04.37.05.38,1.62,2.01,6.19,5.69,8.34,7.62l.05.33-.49-.22c-2.93-2.64-5.92-5.24-8.89-7.84,1.16-1.51,2.77-2.62,4.06-4,.23.02,1.21.96,1.21,1.04,0,.1-1.27,1.47-1.37,1.48-.43.07-.77-.91-1.26-.71,1.26.97.96,1.21-.11,2.25Z"/>
        <path class="cls-23" d="M664.45,11.95l-1.37,1.86c-1.67-1.32-1.79-1.36-.33-2.96l-1.43,1.43c-.17-.3-1.57-1.3-1.59-1.48-.02-.22,1.23-1.53,1.43-1.81,1.09.99,2.21,1.96,3.29,2.96Z"/>
        <path class="cls-23" d="M654.03,2.51c-1.22,1.24-1.18,2.31-2.69.66-1.03-1.13.51-1.03.93-2.19.61.5,1.17,1.01,1.76,1.54Z"/>
        <path class="cls-23" d="M665.99,13.59c-.31.09-.98,1.33-1.37,1.54-2.15-1.28-1.03-1.37-.05-2.96.45.42,1.2.76,1.43,1.43Z"/>
        <path class="cls-21" d="M667.74,21.82c-.38.36-.68.75-1.1,1.1-.03.03-.23-.03-.27,0-.27.22-.71.98-.77.99s-.83-.85-.82-.93c0-.06.76-.93.82-.93.13-.01.6.86.93.71.02-.24-.65-.82-.66-.88-.02-.16.71-.84.82-1.04l1.04.99Z"/>
        <path class="cls-23" d="M648.54,2.51c.24-.25.59-.5.88-.77l.99,1.04c-1.26,1.06-1.16,2.14-2.63.55.29-.24.51-.56.77-.82Z"/>
        <path class="cls-23" d="M652.27.98c-1.32.59-1.3,2.44-2.63.66.23-.2,1.42-1.51,1.59-1.54.51.07.73.62,1.04.88Z"/>
        <path class="cls-21" d="M669.28,20.18c-.4.41-.79.81-1.21,1.21l-1.1-.82,1.15-1.26,1.15.88Z"/>
        <path class="cls-23" d="M658.75,19.08h-1.1c-.9-.81-1.85-1.59-2.74-2.41l1.59-1.86c.19.21,1.59,1.35,1.59,1.48,0,.15-1.4,1.41-1.37,1.81l1.54-1.76c.17.28,1.58,1.3,1.59,1.48,0,.14-.97,1.08-1.1,1.26Z"/>
        <path class="cls-23" d="M646.02,7.56h.11c-.17.21-.26.54-.55.71.63.48,1.18,1.06,1.76,1.59.15.14.21.1.22.11.55.5,1.36,1.06,1.76,1.43,0,0-.05.08.11.22.55.49,1.09,1.04,1.65,1.54.02.02.05.06.11.11.55.48,1.06,1.04,1.59,1.54l1.59-1.76c.07,0,.16-.02.22,0l-1.65,1.81c-.02.13.54.48.66.6.37.38.73.64,1.1.99.07.07.14.15.22.22.9.83,1.84,1.6,2.74,2.41.52.47,1.85,1.55,2.19,1.97.02.03-.06.23.11.22v.11c-2.41-2.02-4.8-4.04-7.13-6.14-2.14-1.93-6.72-5.61-8.34-7.62-.01-.02-.32-.45-.05-.38l.99.99c.09-.32.39-.45.6-.66Z"/>
        <path class="cls-23" d="M647.34,9.86c-.58-.54-1.13-1.11-1.76-1.59.29-.17.38-.5.55-.71.11-.14,1.14-1.11,1.26-1.1.18.3,1.57,1.28,1.59,1.48.03.24-1.37,1.68-1.65,1.92Z"/>
        <path class="cls-23" d="M659.95,21.27c-.02-.13,1.47-1.64,1.59-1.97.19.35,1.66,1.38,1.7,1.59.06.34-1.34,1.48-1.48,1.92-.21-.23-1.8-1.42-1.81-1.54Z"/>
        <path class="cls-23" d="M654.36,13.05l-1.59,1.76c-.53-.5-1.05-1.06-1.59-1.54l1.59-1.86,1.7,1.48-.11.16Z"/>
        <path class="cls-23" d="M651.07,13.16c-.56-.5-1.09-1.04-1.65-1.54l1.59-1.86c.22.31,1.62,1.28,1.59,1.59-.01.13-1.49,1.44-1.54,1.81Z"/>
        <path class="cls-23" d="M649.31,11.4c-.4-.36-1.21-.92-1.76-1.43l1.81-1.76,1.48,1.37-1.54,1.81Z"/>
        <path class="cls-23" d="M655.67,15.35c-.55.38-1.6-.46-2.08.11-.12-.12-.68-.48-.66-.6l1.65-1.81c.11.03,1.63,1.37,1.65,1.48.05.28-.39.59-.55.82Z"/>
        <path class="cls-23" d="M659.84,21.05c-.35-.43-1.67-1.5-2.19-1.97h1.1c-.09.13-.35.5-.27.66.27-.23.48-.51.71-.77.35.04,1.25-.1,1.43-.44.25.2.54.37.77.6l-1.54,1.92Z"/>
        <path class="cls-23" d="M655.67,15.35c-.27.39-.62.79-.99,1.1-.37-.35-.73-.61-1.1-.99.49-.57,1.53.27,2.08-.11Z"/>
        <path class="cls-23" d="M652.27.98c-.43,1.16-1.97,1.06-.93,2.19,1.51,1.65,1.47.58,2.69-.66.08.07.15.16.22.22l-1.54,1.59c1.56,1.39,1.23,1.78,2.8.16-1.48,1.8-1,1.35.44,2.85l1.43-1.54c.06.37-1.28,1.6-1.26,1.7s1.57,1.4,1.7,1.37l1.32-1.43c.05.39-1.12,1.31-1.15,1.48-.07.38,1.24,1.43,1.59,1.59l1.37-1.65s.2.09.22.11c-.19.28-1.45,1.59-1.43,1.81.02.18,1.42,1.18,1.59,1.48l1.43-1.43c-1.46,1.6-1.34,1.64.33,2.96l1.37-1.86c.16.15.1.21.11.22-.97,1.59-2.09,1.68.05,2.96.39-.21,1.06-1.45,1.37-1.54.03,0,.08,0,.11,0-.35.98-1.73,1.27-.93,2.19,1.64,1.89,1.42,1.03,2.91-.27-.4,1.03-1.97,1.45-.55,2.41-.41.24-.64-.53-.93-.49-.1.01-1.36,1.49-1.37,1.59-.02.16.93.97,1.1,1.15-.62-.03-.95-.91-1.26-.88-.11.01-1.47,1.59-1.48,1.7,0,.02.35.14.33.22-.06.2-.43-.09-.49-.05-.3.18-1.08,1.61-1.54,1.86-.35.05-1.61-1.38-1.92-1.65v-.11c.01.12,1.6,1.3,1.81,1.54.14-.44,1.54-1.58,1.48-1.92-.04-.21-1.51-1.24-1.7-1.59-.12.34-1.61,1.85-1.59,1.97-.17.01-.09-.19-.11-.22l1.54-1.92c-.23-.23-.51-.4-.77-.6-.15-.12-.36-.57-.6-.55-.32.29-.53.67-.82.99-.23.26-.44.54-.71.77-.08-.16.19-.53.27-.66.13-.18,1.11-1.12,1.1-1.26-.01-.18-1.42-1.2-1.59-1.48l-1.54,1.76c-.03-.4,1.37-1.66,1.37-1.81,0-.13-1.4-1.27-1.59-1.48l-1.59,1.86c-.08-.07-.15-.15-.22-.22.36-.31.71-.71.99-1.1.16-.23.6-.54.55-.82-.02-.11-1.54-1.45-1.65-1.48-.06-.02-.15,0-.22,0l.11-.16-1.7-1.48-1.59,1.86c-.06-.05-.09-.09-.11-.11.04-.37,1.52-1.68,1.54-1.81.03-.31-1.37-1.28-1.59-1.59l-1.59,1.86c-.16-.14-.1-.21-.11-.22l1.54-1.81-1.48-1.37-1.81,1.76s-.07.03-.22-.11c.28-.24,1.67-1.68,1.65-1.92-.02-.2-1.41-1.18-1.59-1.48-.12-.02-1.15.96-1.26,1.1h-.11c1.07-1.04,1.37-1.27.11-2.25.49-.19.83.78,1.26.71.1-.02,1.37-1.38,1.37-1.48,0-.08-.97-1.02-1.21-1.04.22-.23.51-.98.99-.99-.26.27-.48.58-.77.82,1.47,1.59,1.37.51,2.63-.55l-.99-1.04c.15-.14.21-.1.22-.11,1.33,1.78,1.31-.07,2.63-.66Z"/>
        <path class="cls-23" d="M664.61,15.57l1.81,1.59c.04.21-1.25,1.68-1.37,1.7-.19.04-1.79-1.37-1.81-1.48-.05-.29,1.13-1.53,1.37-1.81Z"/>
        <path class="cls-23" d="M659.57,10.96l1.7,1.48-1.59,1.81c-.19-.27-1.57-1.3-1.59-1.48-.02-.16,1.27-1.57,1.48-1.81Z"/>
        <path class="cls-23" d="M650.57,2.84c.23-.02,1.51,1.28,1.81,1.48l-1.59,1.7-1.7-1.59c.3-.16,1.33-1.57,1.48-1.59Z"/>
        <path class="cls-23" d="M657.81,9.32c.17.28,1.58,1.3,1.59,1.48,0,.12-1.33,1.53-1.48,1.81-.24-.14-1.57-1.37-1.59-1.48-.04-.29,1.22-1.54,1.48-1.81Z"/>
        <path class="cls-23" d="M656.06,7.67c.13.29,1.59,1.37,1.59,1.48,0,.12-1.41,1.56-1.59,1.81-.13-.3-1.58-1.37-1.59-1.48-.01-.12,1.37-1.6,1.59-1.81Z"/>
        <polygon class="cls-23" points="652.55 4.49 654.14 5.97 652.55 7.67 650.96 6.19 652.55 4.49"/>
        <path class="cls-23" d="M661.32,12.61c.1-.02,1.58,1.27,1.59,1.37.01.13-1.27,1.59-1.48,1.81-.21-.18-1.58-1.27-1.59-1.37,0-.12,1.34-1.52,1.48-1.81Z"/>
        <path class="cls-23" d="M648.82,4.71c.27-.08,1.54,1.26,1.81,1.48-.16.22-1.27,1.58-1.37,1.59-.16.02-1.55-1.39-1.81-1.59.29-.13,1.27-1.45,1.37-1.48Z"/>
        <path class="cls-23" d="M654.19,6.13c.23-.03,1.58,1.27,1.59,1.37.02.2-1.25,1.57-1.48,1.81-.13-.29-1.45-1.27-1.48-1.37-.09-.32,1.16-1.5,1.37-1.81Z"/>
        <path class="cls-23" d="M656.17,11.29c.16.3,1.57,1.33,1.59,1.48s-1.11,1.34-1.26,1.59l-1.81-1.48,1.48-1.59Z"/>
        <path class="cls-23" d="M657.92,12.94l1.7,1.48-1.37,1.59c-.14.01-1.7-1.37-1.7-1.48,0-.11,1.26-1.32,1.37-1.59Z"/>
        <path class="cls-23" d="M654.3,9.65c.11-.02,1.58,1.37,1.59,1.48.02.18-1.1,1.33-1.26,1.59-.25-.14-1.7-1.37-1.7-1.48,0-.11,1.23-1.34,1.37-1.59Z"/>
        <path class="cls-23" d="M663.9,18.31c.15.04.99.74.99.82l-1.48,1.7c-.15-.32-1.67-1.48-1.7-1.59-.07-.26.5-.74.66-.93.44.07,1.14-.09,1.54,0Z"/>
        <path class="cls-23" d="M652.55,8c.24.14,1.58,1.37,1.59,1.48.02.16-1.17,1.38-1.37,1.59l-1.59-1.48,1.37-1.59Z"/>
        <path class="cls-23" d="M659.79,14.58c.14.29,1.46,1.24,1.48,1.37.03.24-1.12,1.37-1.26,1.7-.2-.23-1.58-1.33-1.59-1.48-.01-.12,1.16-1.4,1.37-1.59Z"/>
        <path class="cls-23" d="M663.08,14.14c.17.22,1.36,1.11,1.37,1.26,0,.12-1.32,1.55-1.48,1.81-.14-.27-1.36-1.11-1.37-1.26,0-.12,1.32-1.55,1.48-1.81Z"/>
        <path class="cls-23" d="M661.43,16.23c1.97,1.14,1.26,1.3.11,2.74-1.79-1.21-1.47-1.3-.11-2.74Z"/>
        <path class="cls-23" d="M651.61,8.66c-.41-.45-1.38-.78-1.86-.44-.02-.02-.41.03-.33-.38.02-.1,1.23-1.23,1.37-1.48l1.59,1.48c.02.24-.61.66-.77.82Z"/>
        <path class="cls-23" d="M651.61,8.66c-.07.08-.41.75-.6.77-.18.01-1.1-1-1.26-1.21.49-.35,1.45-.01,1.86.44Z"/>
        <path class="cls-23" d="M660.61,18.53c-.18.34-1.07.48-1.43.44.29-.31.5-.7.82-.99.25-.03.46.43.6.55Z"/>
        <path class="cls-23" d="M663.9,18.31c-.4-.09-1.09.07-1.54,0,.15-.17.43-.8.71-.77.06,0,.76.62.82.77Z"/>
        <path class="cls-58" d="M677.18,22.81c.23.2.59.4.77.55.96.81,1.97,1.57,2.91,2.41l-.05-.44c.58.58,1.36,1.12,1.76,1.86-.24.12-.35,0-.77.33-.04-.27-1.28-1.33-1.37-1.32-.63.07-7.72,8.2-9.05,9-1.24-1.14-2.5-2.24-3.73-3.4-.06-.21.04-.23.11-.33h.11c.36.34,1.01.38,1.48.33,1.11-.13,5.43-4.48,6.31-5.54.07-.09.47-.59.33-.71.1-.11.1-.23.33-.27l-.88-.71v-.11c-.31-.39-.67-.72-.99-1.1.33-.04,1.04.99,1.15.99.16,0,1.22-1.5,1.59-1.54Z"/>
        <path class="cls-13" d="M671.69,21.38c.14.11.15.08.22.11.07.3.39.34.55.44,1.09.7,1.85,1.85,2.96,2.52v.11l-2.96,2.74c-.59-.59-1.25-1.13-1.81-1.76-.24-.03-.46.43-.6.55-.43.36-.81.75-1.21,1.15.6,1.04.1,2.32,1.92,2.14.87-.09,1.03-.63,1.59-1.1.12-.1.31-.13.44-.22-.92.82-1.71,2.02-2.85,2.74-.61.38-1.9.24-2.19.66-.07.1-.17.12-.11.33-1.64-1.54-3.31-3.05-4.94-4.61.07-.09.16-.15.22-.22.39.13,1.22,1.17,1.59,1.1.48-.09,5.94-6.28,6.97-6.91,0,.13.15.17.22.22Z"/>
        <path class="cls-17" d="M675.97,20.51c-.48-.33-2.22-1.2-2.69-1.1-.38.08-1.21,1.21-1.59,1.48,0,.3,1.19.93,1.32,1.04l1.32,1.32s.06.05.11.11c.32.38.68.71.99,1.1-1.11-.67-1.88-1.82-2.96-2.52-.09-.29-.32-.32-.55-.44-.07-.03-.08,0-.22-.11l-.22-.22c-1.03.63-6.48,6.82-6.97,6.91-.37.07-1.2-.97-1.59-1.1,1.2-1.42,2.58-2.61,3.73-4.06.41-.34.72-.73,1.1-1.1.2-.19.31-.42.33-.44.41-.4.8-.8,1.21-1.21,1.02-1.04,1.96-2.13,2.96-3.18l3.73,3.51Z"/>
        <path class="cls-21" d="M681.78,27.53c-1.1.88-2.15,2.43-3.29,3.35l1.21,1.04c-.13.12-.59,1.02-.93.99-.2-.02-.97-1.05-1.32-.99-.91.18,1.09.92,1.04,1.37-.77.58-.59,1.19-1.43.71-.2-.12-.79-.67-.93-.66-.23.02-2.86,2.85-3.35,3.29-.55-.35-.97-1.01-1.43-1.43,1.33-.79,8.42-8.93,9.05-9,.09,0,1.33,1.05,1.37,1.32Z"/>
        <path class="cls-29" d="M665.44,30.71c.88.88,3.38,3.42,3.62,4.44.26,1.07-.65.73-1.32,1.26-1.49-1.44-3.47-3.15-4.83-4.61-.33-.36-.98-.99-1.21-1.37-.92-1.57-.35-1.51.55-2.69,1.06.99,2.16,1.93,3.18,2.96Z"/>
        <path class="cls-38" d="M665,37.84c-1.37-1.26-2.71-2.56-4.06-3.84.47-.66.72-1.06,1.32-1.65.53-.34.78-.11,1.26.22,1.32.9,3.55,4.05,1.48,5.27Z"/>
        <path class="cls-29" d="M678.05,19.96c.14.13.29.3.44.44.47.89-.29,1.85-1.21,1.32-.43-.39-.85-.88-1.32-1.21l-3.73-3.51c.2-.21.36-.7.71-.77,1.43-.28,4.13,2.83,5.1,3.73Z"/>
        <path class="cls-38" d="M679.04,20.83c.57.57,1.4,1.15,1.86,1.65,0,0-.03.07.11.22.91,1.01,2.52,2.82,1.97,4.22-.15.38-.26.19-.44.27-.39-.75-1.17-1.28-1.76-1.86-1.07-1.07-2.07-2.27-3.18-3.29-.12-.11-.22-.23-.33-.33.92.53,1.67-.43,1.21-1.32.16.15.4.29.55.44Z"/>
        <path class="cls-38" d="M659.73,40.25c.23.2.94.99,1.1,1.1-.8.69-3.11,2.77-4.22,2.08-1.38-.85,1.21-3.8,1.48-4.61.51.52,1.1.95,1.65,1.43Z"/>
        <path class="cls-13" d="M659.29,35.32c1.05.81,1.96,1.77,2.85,2.74l-.33.33c-1.01-.95-2.18-1.98-3.35-2.74,1.03.92,2,1.92,3.02,2.85l-1.76,1.76c-.54-.48-1.14-.91-1.65-1.43.42-1.26-.63-2.12-.33-3.02.17-.52,1.12-.44,1.54-.49Z"/>
        <path class="cls-38" d="M672.46,36.96c-.82.72-1.14,1.62-2.36,1.43-.4-.06-1.8-1.21-2.14-1.54-.09-.08-.13-.36-.22-.44.67-.53,1.57-.19,1.32-1.26s-2.74-3.56-3.62-4.44l7.02,6.25Z"/>
        <path class="cls-38" d="M667.74,36.41c.09.08.13.36.22.44-.18.79-3.35,2.48-3.4,2.69-.06.25.23.86-.11,1.59-.09,0-.12-.08-.22-.11-.12-.32-.43-.74-.66-.99-.02-.42-.38-.95-.66-1.32.57.1,1.11.58,1.65.11.03.02.59.36.55.05-.44-.18-.75-.54-1.1-.82.83-.06.21-.35.11-.77.12.08,1.7,1.66,1.76,1.26-.31-.22-.6-.46-.88-.71,2.07-1.22-.16-4.37-1.48-5.27-.48-.32-.73-.56-1.26-.22.21-.21.38-.43.66-.55,1.35,1.45,3.33,3.17,4.83,4.61Z"/>
        <path class="cls-36" d="M667.63,31.81c1.23,1.16,2.48,2.26,3.73,3.4.46.42.88,1.07,1.43,1.43-.11.1-.21.22-.33.33l-7.02-6.25c-1.02-1.03-2.12-1.98-3.18-2.96.14-.19.29-.37.44-.55,1.62,1.56,3.3,3.07,4.94,4.61Z"/>
        <path class="cls-29" d="M664.12,37.29c.1.42.72.71-.11.77-1.16-.94-2.39-1.79-3.46-2.85-.23-.05-.08.23-.05.27.17.26,3.66,3.12,4.06,3.35-.53.47-1.08,0-1.65-.11-.28-.37-.62-.5-.77-.66-.9-.97-1.8-1.94-2.85-2.74.32-.04.78.12.82.11.16-.05.45-.99.6-1.21l3.4,3.07Z"/>
        <path class="cls-58" d="M664.23,41.02c.1.03.13.11.22.11-.64,1.37-1.61.36-2.47.22-.46-.07-.27.6-1.15,0-.16-.11-.87-.9-1.1-1.1l1.76-1.76c.37.34,2.56,2.47,2.74,2.52Z"/>
        <path class="cls-19" d="M665,37.84c.28.26.56.5.88.71-.06.39-1.64-1.18-1.76-1.26l-3.4-3.07c.09-.13.21-.21.22-.22,1.35,1.28,2.69,2.58,4.06,3.84Z"/>
        <path class="cls-13" d="M675.97,20.51c.47.33.89.82,1.32,1.21.11.1.21.22.33.33l-.33.55c-.79-.8-1.69-1.63-2.63-2.25.84.82,1.64,1.69,2.52,2.47-.37.04-1.43,1.53-1.59,1.54-.11,0-.82-1.02-1.15-.99-.05-.06-.1-.1-.11-.11-.42-.48-.84-.9-1.32-1.32-.13-.11-1.32-.74-1.32-1.04.38-.27,1.21-1.4,1.59-1.48.47-.1,2.21.77,2.69,1.1Z"/>
        <path class="cls-35" d="M667.85,31.48c.98.02,1.36-.2,2.08-.66,1.14-.72,1.93-1.92,2.85-2.74,0,0,.1-.21.11-.22.05-.05.19.19.27.11.8-.72,2.12-1.69,2.8-2.41.15.12-.26.63-.33.71-.88,1.06-5.2,5.41-6.31,5.54-.47.06-1.12.01-1.48-.33Z"/>
        <path class="cls-11" d="M675.97,25.55c-.68.72-1.99,1.69-2.8,2.41-.09.08-.22-.16-.27-.11-.13-.18-.29-.4-.44-.55l2.96-2.74.88.71c-.23.05-.23.16-.33.27Z"/>
        <path class="cls-42" d="M680.8,25.33l.05.44c-.93-.85-1.94-1.61-2.91-2.41-.21-.25-.43-.54-.66-.77l.33-.55c1.11,1.02,2.12,2.22,3.18,3.29Z"/>
        <path class="cls-7" d="M677.28,22.59c.23.23.45.52.66.77-.18-.15-.54-.35-.77-.55-.88-.77-1.68-1.65-2.52-2.47.95.62,1.84,1.45,2.63,2.25Z"/>
        <path class="cls-8" d="M669.93,30.82c-.72.46-1.11.68-2.08.66h-.11c.29-.42,1.58-.28,2.19-.66Z"/>
        <path class="cls-63" d="M672.35,28.29c-.56.47-.72,1.01-1.59,1.1-1.82.18-1.32-1.1-1.92-2.14.39-.4.78-.79,1.21-1.15.55.19,1.96,1.22,2.19,1.7.02.03-.5.01.11.49Z"/>
        <path class="cls-29" d="M672.46,27.31c.15.15.31.37.44.55,0,0-.1.21-.11.22-.13.09-.32.12-.44.22-.61-.48-.09-.46-.11-.49-.23-.48-1.65-1.51-2.19-1.7.15-.12.36-.57.6-.55.56.62,1.22,1.16,1.81,1.76Z"/>
        <path class="cls-64" d="M672.46,21.93c-.16-.1-.48-.14-.55-.44.23.12.45.15.55.44Z"/>
        <path class="cls-64" d="M671.69,21.38c-.06-.05-.23-.09-.22-.22l.22.22Z"/>
        <path class="cls-42" d="M674.32,23.25l-1.32-1.32c.48.42.9.84,1.32,1.32Z"/>
        <path class="cls-7" d="M661.82,38.39c.53.5,1.29,1.14,1.76,1.65.23.25.54.66.66.99-.18-.06-2.37-2.18-2.74-2.52-1.02-.94-1.99-1.93-3.02-2.85,1.16.76,2.33,1.8,3.35,2.74Z"/>
        <path class="cls-28" d="M662.91,38.72c.28.36.64.89.66,1.32-.47-.5-1.22-1.15-1.76-1.65l.33-.33c.15.16.48.29.77.66Z"/>
        <path class="cls-33" d="M664.01,38.06c.35.28.66.65,1.1.82.05.3-.52-.04-.55-.05-.39-.23-3.88-3.09-4.06-3.35-.03-.04-.18-.33.05-.27,1.06,1.06,2.29,1.92,3.46,2.85Z"/>
        <path class="cls-11" d="M681.67,18.42l-2.63,2.41c-.15-.15-.39-.29-.55-.44-.15-.14-.3-.31-.44-.44-2.09-2.4-3.45-6.38-3.62-9.54,2.52,2.55,4.7,5.48,7.24,8.01Z"/>
        <path class="cls-13" d="M678.16,12.61c3.93,4.21,7.79,8.93,12.73,11.96.05.06.36.14.16.33-.27-.04-.45.22-.71.22-.68,0-4.01-2.51-4.72-3.07-.75-.6-1.49-1.32-2.19-1.97-.58-.54-1.19-1.08-1.76-1.65-2.54-2.53-4.72-5.45-7.24-8.01-.02-.36-.06-1.37.11-1.65.9.95,1.69,2.01,2.58,2.96.08.08.25-.19.33-.11.25.27.51.76.71.99Z"/>
        <path class="cls-13" d="M682.77,16.23c.06.06.21.45.55.77.09.09.39.53.49.55l.16-.11c.62,1.11,7.56,6.88,7.57,7.4,0,.41-.91.34-1.21.38v-.11c.26,0,.44-.26.71-.22.2-.19-.12-.27-.16-.33-.64-.79-3.32-2.58-4.33-3.51-2.92-2.67-5.5-5.74-8.39-8.45-.21-.22-.46-.72-.71-.99-.08-.08-.25.19-.33.11-.89-.96-1.68-2.01-2.58-2.96.11-.19.14-.26.38-.22.54.08,6.96,6.75,7.84,7.68Z"/>
        <path class="cls-38" d="M690.34,25.11v.11c-2.37.34-4.77-.26-6.91-1.21l2.19-1.97c.71.57,4.04,3.06,4.72,3.07Z"/>
        <path class="cls-47" d="M685.62,22.04l-2.19,1.97c-.87-.38-1.63-.79-2.41-1.32-.14-.15-.1-.21-.11-.22l2.52-2.41c.71.66,1.44,1.37,2.19,1.97Z"/>
        <path class="cls-58" d="M687.38,12.72c-.78,1.31-3.11,2.95-4.06,4.28-.33-.32-.49-.71-.55-.77l4.61-3.95c0,.07.31-.08,0,.44Z"/>
        <path class="cls-31" d="M687.49,12.83c-.73.54-2.91,4.31-3.51,4.61l-.16.11c-.1-.01-.4-.46-.49-.55.95-1.32,3.28-2.97,4.06-4.28l.11.11Z"/>
        <path class="cls-59" d="M689.68,11.29c.11.57-.22,1.4-.82,1.54-.65.14-.92-.33-1.37,0l-.11-.11c.31-.52,0-.37,0-.44,0-.14,0-.29,0-.44l2.3-.55Z"/>
        <path class="cls-60" d="M683.43,20.07l-2.52,2.41c-.46-.5-1.29-1.07-1.86-1.65l2.63-2.41c.56.56,1.17,1.1,1.76,1.65Z"/>
        <path class="cls-7" d="M690.89,24.56c-4.94-3.03-8.79-7.75-12.73-11.96,2.89,2.71,5.47,5.78,8.39,8.45,1.01.93,3.69,2.72,4.33,3.51Z"/>
        <path class="cls-11" d="M689.68,11.29l-2.3.55c0-.18-.2-.27,0-.71.43-.95,2.09-.92,2.3.16Z"/>
        <path class="cls-8" d="M688.42,10.63s.52-.01.55,0c.21.54-.23.25-.55.22-.09-.06-.09-.17,0-.22Z"/>
      </g>
    </g>
  </g>
</svg>