<?xml version="1.0" encoding="UTF-8"?>
<svg id="Layer_1" xmlns="http://www.w3.org/2000/svg" version="1.1" xmlns:xlink="http://www.w3.org/1999/xlink" viewBox="0 0 595.3 841.9">
  <!-- Generator: Adobe Illustrator 29.4.0, SVG Export Plug-In . SVG Version: 2.1.0 Build 152)  -->
  <defs>
    <style>
      .st0 {
        fill: url(#linear-gradient9);
      }

      .st0, .st1, .st2, .st3, .st4, .st5, .st6, .st7, .st8, .st9, .st10, .st11, .st12, .st13, .st14, .st15 {
        opacity: .8;
      }

      .st1 {
        fill: url(#linear-gradient4);
      }

      .st16 {
        fill: none;
        stroke: #61615f;
        stroke-miterlimit: 10;
      }

      .st2 {
        fill: url(#linear-gradient);
      }

      .st3 {
        fill: url(#linear-gradient10);
      }

      .st4 {
        fill: url(#linear-gradient12);
      }

      .st5 {
        fill: url(#linear-gradient1);
      }

      .st6 {
        fill: url(#linear-gradient8);
      }

      .st7 {
        fill: url(#linear-gradient14);
      }

      .st8 {
        fill: url(#linear-gradient11);
      }

      .st9 {
        fill: url(#linear-gradient5);
      }

      .st10 {
        fill: url(#linear-gradient2);
      }

      .st17 {
        display: none;
      }

      .st11 {
        fill: url(#linear-gradient13);
      }

      .st12 {
        fill: url(#linear-gradient15);
      }

      .st13 {
        fill: url(#linear-gradient6);
      }

      .st14 {
        fill: url(#linear-gradient3);
      }

      .st15 {
        fill: url(#linear-gradient7);
      }
    </style>
    <linearGradient id="linear-gradient" x1="251.9" y1="403.3" x2="274" y2="403.3" gradientTransform="translate(192.9 -76.7) rotate(24.7)" gradientUnits="userSpaceOnUse">
      <stop offset="0" stop-color="#7c6557"/>
      <stop offset="1" stop-color="#7c6557" stop-opacity=".4"/>
    </linearGradient>
    <linearGradient id="linear-gradient1" x1="273.3" y1="403.4" x2="291.6" y2="403.4" gradientTransform="translate(192.9 -76.7) rotate(24.7)" gradientUnits="userSpaceOnUse">
      <stop offset="0" stop-color="#3f3518"/>
      <stop offset="1" stop-color="#3f3518" stop-opacity="0"/>
    </linearGradient>
    <linearGradient id="linear-gradient2" x1="263.1" y1="415.6" x2="279.3" y2="415.6" xlink:href="#linear-gradient1"/>
    <linearGradient id="linear-gradient3" x1="265.1" y1="389.8" x2="283.1" y2="389.8" xlink:href="#linear-gradient1"/>
    <linearGradient id="linear-gradient4" x1="298.7" y1="366.5" x2="320.8" y2="366.5" xlink:href="#linear-gradient"/>
    <linearGradient id="linear-gradient5" x1="320.1" y1="366.6" x2="338.4" y2="366.6" xlink:href="#linear-gradient1"/>
    <linearGradient id="linear-gradient6" x1="309.9" y1="378.8" x2="326.1" y2="378.8" xlink:href="#linear-gradient1"/>
    <linearGradient id="linear-gradient7" x1="311.9" y1="353" x2="329.9" y2="353" xlink:href="#linear-gradient1"/>
    <linearGradient id="linear-gradient8" x1="157" y1="384.5" x2="179.1" y2="384.5" xlink:href="#linear-gradient"/>
    <linearGradient id="linear-gradient9" x1="178.3" y1="384.5" x2="196.7" y2="384.5" xlink:href="#linear-gradient1"/>
    <linearGradient id="linear-gradient10" x1="168.2" y1="396.8" x2="184.3" y2="396.8" xlink:href="#linear-gradient1"/>
    <linearGradient id="linear-gradient11" x1="170.1" y1="371" x2="188.2" y2="371" xlink:href="#linear-gradient1"/>
    <linearGradient id="linear-gradient12" x1="213.8" y1="353.8" x2="235.9" y2="353.8" xlink:href="#linear-gradient"/>
    <linearGradient id="linear-gradient13" x1="235.1" y1="353.9" x2="253.5" y2="353.9" xlink:href="#linear-gradient1"/>
    <linearGradient id="linear-gradient14" x1="225" y1="366.1" x2="241.1" y2="366.1" xlink:href="#linear-gradient1"/>
    <linearGradient id="linear-gradient15" x1="226.9" y1="340.3" x2="245" y2="340.3" xlink:href="#linear-gradient1"/>
  </defs>
  <g class="st17">
    <path class="st16" d="M190.5,443.6s1.7,9.4,3.5,14.1,7.3,21.8,11.8,28.3c4.4,6.5,5.3,10.7,11.3,17.2s15.4,17.5,22.8,22.2,12.1,7.4,20.7,11,25.2,7.7,34.1,8.3,32.6.9,41.5-1.8,15.4-5.4,26-10.2c16.9-7.7,16.6-11.2,30.6-26.2,4.1-4.4,21-31.1,23.4-35.9s6.8-14.5,7.1-16.6-.8-1.9-5.6-1.5c-13.1,1.2-41.2-8.9-51.6-31.5s-6.8-21.2-3.3-44.6c1.1-7.5,3-21.3.9-24s-14.8,1.8-20.1,5-21,11.3-27.3,12.4-13,2.1-18.8.6-9.8-2.1-36.9-18.4-9.2-1.6-11.6.9-4,7.2-4.6,10.7-.4,18.9-6.3,33.7-6.4,17-13.9,24.1-9.4,9.3-26.7,14.1c-7.7,2.1-7,8-7,8Z"/>
    <path class="st16" d="M452,311.9c4.4,5.1,6.4,11,6.6,14.3,1.1,16.9.6,30.2,0,36.1s-5,45.6-5.9,49.5-3.3,20.1-10.8,28.3-8.1,5.9-20.6,7.5-17.9-1.2-27-6.8-15.9-10.6-21.9-24.9-5.9-30.1-2.7-50.4c1.1-7.2,2.5-17.8,15.1-32.9s14-14.2,26.4-20.4c1.8-.9,11.2-4.8,15.7-5.3s10.4-1.3,17.5.6,7.6,4.4,7.6,4.4Z"/>
    <path class="st16" d="M140.1,279.9c-2.7,4.4-6.2,27.9-3.9,42.4s10.7,53.9,17.5,70.2,17.5,33.5,27,37.6,19.5.2,24.9-3c11.3-6.8,16.6-11.3,23.1-24.8,4.9-10.2,11.6-36.7,8.6-52s-9.5-35.7-19-46.1c-9.5-10.4-28.1-26.4-40.9-30.2-12.7-3.9-23-5.8-28.8-3.2s-8.5,9.1-8.5,9.1Z"/>
    <path class="st16" d="M304.6,198.3c2.7,0,12.9,2,19.1,7.3s14,9.6,28,35.6c8.8,16.4,12.4,25.8,13.8,35.3s3.5,17.1,1.6,39.1-9.1,24.9-20.2,31.3c-11.1,6.4-15.8,8.7-31.1,11.3-15.3,2.7-27.3-1.3-33.3-3.6s-24.7-12.2-32.9-29.6-7.3-33.1-6-44.9,4.2-32.9,15.8-52.9,8.4-11.3,13.8-16.9,10.7-8.2,14.9-9.8,8-2.4,11.3-2.4h5.3Z"/>
  </g>
  <g>
    <g>
      <path class="st2" d="M257.3,411.4c.1,0,.3,0,.3-.1.3-.6.4-.8.5-1,1.4-2.4,4.3-4.3,8.8-2.3s.6.3,1.2.8.4.3.6.4.4.3.7.4c.8.4,1.8-.2,1.8-1.1-.2-3.8.1-4.2.5-5.1s1.1-1.9,3.4-3.3,1-2.1,0-2.7-.9-.5-1.5-.9c-1-.6-2.3-2-2.9-3.1-.7-1.6-1-3.1-.7-4.8s0-.5-.3-.6c-.6-.3-2.5-.5-3.2-.5-5.4.2-10.6,2.5-13.1,7.7-3.2,6.6,1,13.1,2.9,15.2s0,0,0,0c0,.1.6.8,1,1.1Z"/>
      <path class="st5" d="M283.9,401.1c4.3,2.7,6.7,7.4,6,9.5-1.1,3.2-6.6,4.4-12.2,3.3s-6.9-5.6-5-9.8,6.9-5.8,11.2-3.1Z"/>
      <path class="st10" d="M268.1,409.5c3.9,2.8,5.6,6.8,4.2,9.8s-3.5,2.5-7.7,0-7.7-5.1-6.4-8.1,5.8-4.6,9.8-1.7Z"/>
      <path class="st14" d="M282.1,387.6c5.3,1.3,8,2.3,6.5,5.6s-6.1,5.7-11.3,4.1-7.9-6.8-5.9-9.8,5.7-1.2,10.8,0Z"/>
    </g>
    <g>
      <path class="st1" d="M315.2,397.5c.1,0,.3,0,.3-.1.3-.6.4-.8.5-1,1.4-2.4,4.3-4.3,8.8-2.3s.6.3,1.2.8.4.3.6.4.4.3.7.4c.8.4,1.8-.2,1.8-1.1-.2-3.8.1-4.2.5-5.1s1.1-1.9,3.4-3.3,1-2.1,0-2.7-.9-.5-1.5-.9c-1-.6-2.3-2-2.9-3.1-.7-1.6-1-3.1-.7-4.8s0-.5-.3-.6c-.6-.3-2.5-.5-3.2-.5-5.4.2-10.6,2.5-13.1,7.7s1,13.1,2.9,15.2,0,0,0,0c0,.1.6.8,1,1.1Z"/>
      <path class="st9" d="M341.8,387.2c4.3,2.7,6.7,7.4,6,9.5-1.1,3.2-6.6,4.4-12.2,3.3s-6.9-5.6-5-9.8,6.9-5.8,11.2-3.1Z"/>
      <path class="st13" d="M326,395.6c3.9,2.8,5.6,6.8,4.2,9.8-1.4,3-3.5,2.5-7.7,0s-7.7-5.1-6.4-8.1c1.4-3,5.8-4.6,9.8-1.7Z"/>
      <path class="st15" d="M340,373.7c5.3,1.3,8,2.3,6.5,5.6s-6.1,5.7-11.3,4.1-7.9-6.8-5.9-9.8,5.7-1.2,10.8,0Z"/>
    </g>
    <g>
      <path class="st6" d="M178.9,354.7c.1,0,.3,0,.3-.1.3-.6.4-.8.5-1,1.4-2.4,4.3-4.3,8.8-2.3s.6.3,1.2.8.4.3.6.4.4.3.7.4c.8.4,1.8-.2,1.8-1.1-.2-3.8.1-4.2.5-5.1s1.1-1.9,3.4-3.3,1-2.1,0-2.7-.9-.5-1.5-.9c-1-.6-2.3-2-2.9-3.1-.7-1.6-1-3.1-.7-4.8s0-.5-.3-.6c-.6-.3-2.5-.5-3.2-.5-5.4.2-10.6,2.5-13.1,7.7s1,13.1,2.9,15.2,0,0,0,0c0,.1.6.8,1,1.1Z"/>
      <path class="st0" d="M205.5,344.3c4.3,2.7,6.7,7.4,6,9.5-1.1,3.2-6.6,4.4-12.2,3.3s-6.9-5.6-5-9.8,6.9-5.8,11.2-3.1Z"/>
      <path class="st3" d="M189.7,352.7c3.9,2.8,5.6,6.8,4.2,9.8-1.4,3-3.5,2.5-7.7,0s-7.7-5.1-6.4-8.1c1.4-3,5.8-4.6,9.8-1.7Z"/>
      <path class="st8" d="M203.7,330.9c5.3,1.3,8,2.3,6.5,5.6s-6.1,5.7-11.3,4.1-7.9-6.8-5.9-9.8,5.7-1.2,10.8,0Z"/>
    </g>
    <g>
      <path class="st4" d="M243.3,350.5c.1,0,.3,0,.3-.1.3-.6.4-.8.5-1,1.4-2.4,4.3-4.3,8.8-2.3s.6.3,1.2.8.4.3.6.4.4.3.7.4c.8.4,1.8-.2,1.8-1.1-.2-3.8.1-4.2.5-5.1s1.1-1.9,3.4-3.3,1-2.1,0-2.7-.9-.5-1.5-.9c-1-.6-2.3-2-2.9-3.1-.7-1.6-1-3.1-.7-4.8s0-.5-.3-.6c-.6-.3-2.5-.5-3.2-.5-5.4.2-10.6,2.5-13.1,7.7s1,13.1,2.9,15.2,0,0,0,0c0,.1.6.8,1,1.1Z"/>
      <path class="st11" d="M269.9,340.2c4.3,2.7,6.7,7.4,6,9.5-1.1,3.2-6.6,4.4-12.2,3.3s-6.9-5.6-5-9.8,6.9-5.8,11.2-3.1Z"/>
      <path class="st7" d="M254.1,348.6c3.9,2.8,5.6,6.8,4.2,9.8-1.4,3-3.5,2.5-7.7,0s-7.7-5.1-6.4-8.1c1.4-3,5.8-4.6,9.8-1.7Z"/>
      <path class="st12" d="M268.1,326.7c5.3,1.3,8,2.3,6.5,5.6s-6.1,5.7-11.3,4.1-7.9-6.8-5.9-9.8,5.7-1.2,10.8,0Z"/>
    </g>
  </g>
</svg>