<?xml version="1.0" encoding="UTF-8"?>
<svg id="Layer_1" data-name="Layer 1" xmlns="http://www.w3.org/2000/svg" viewBox="0 0 350.02 347.76">
  <defs>
    <style>
      .cls-1 {
        fill: #403205;
      }

      .cls-1, .cls-2, .cls-3 {
        opacity: .8;
      }

      .cls-2 {
        fill: #3f3415;
      }

      .cls-3 {
        fill: #7c6557;
      }
    </style>
  </defs>
  <path class="cls-3" d="M92.1,299.04c1.27.22,2.42-.8,2.4-2.09-.07-5.69-.08-7.62.17-10.11,2.44-24.69,18.69-50.57,62.06-50.57,1.97,0,5.82.2,12.59,1.84,2.17.52,4.37.93,6.59,1.19s4.46.46,6.61.56c8.2.38,13.71-8.3,9.91-15.57-15.45-29.5-14.5-34.24-14.95-42.79-.41-7.75,1.87-19.66,14.85-38.95,5.84-8.68.66-20.5-9.7-21.94-3.75-.52-8.77-1.08-15.83-1.9-10.62-1.23-26.19-7.66-34.41-14.49-11.7-9.73-19.12-21.13-23.48-35.47-.94-3.11-2.74-3.85-4.61-3.89-6.09-.11-22.33,4.94-27.44,7.52C34.61,93.71,1.06,131.04.02,182.47c-1.3,64.57,56.07,101.49,79.56,111.35.12.05.23.1.35.17,1.19.63,8.3,4.38,12.16,5.05Z"/>
  <path class="cls-2" d="M266.87,118.71c44.44,6.18,80.76,34.38,82.96,54.47,3.26,29.68-36.8,59.52-85.8,71.49-38.65,9.44-75.65-19.83-75.65-59.95s33.81-72.23,78.48-66.01Z"/>
  <path class="cls-2" d="M171.17,244.19c41.58,7.99,70.07,33.91,70.07,63.04s-18.78,32.78-61.93,28.44c-50.07-5.04-80.63-12.3-80.63-41.43s29.9-58.24,72.48-50.06Z"/>
  <path class="cls-1" d="M203.02,17.6c47.21-8.65,72.3-10.58,72.3,20.97s-28.17,68.47-75.56,74.51c-49.78,6.35-88.59-25.66-83.3-56.52,3.24-18.85,41.35-30.68,86.56-38.96Z"/>
</svg>