<?xml version="1.0" encoding="UTF-8"?>
<svg id="Layer_1" data-name="Layer 1" xmlns="http://www.w3.org/2000/svg" viewBox="0 0 327.15 351.02">
  <defs>
    <style>
      .cls-1 {
        stroke: #61615f;
        stroke-miterlimit: 10;
      }

      .cls-1, .cls-2 {
        fill: none;
      }

      .cls-2 {
        stroke: #726658;
        stroke-width: 2px;
      }
    </style>
  </defs>
  <g>
    <path class="cls-1" d="M288.5,258.43c.22-1.27-.8-2.42-2.09-2.4-5.69.07-7.62.08-10.11-.17-24.69-2.44-50.57-18.69-50.57-62.06,0-1.97.2-5.82,1.84-12.59.52-2.17.93-4.37,1.19-6.59s.46-4.46.56-6.61c.38-8.2-8.3-13.71-15.57-9.91-29.5,15.45-34.24,14.5-42.79,14.95-7.75.41-19.66-1.87-38.95-14.85-8.68-5.84-20.5-.66-21.94,9.7-.52,3.75-1.08,8.77-1.9,15.83-1.23,10.62-7.66,26.19-14.49,34.41-9.73,11.7-21.13,19.12-35.47,23.48-3.11.94-3.85,2.74-3.89,4.61-.11,6.09,4.94,22.33,7.52,27.44,21.33,42.22,58.67,75.78,110.1,76.81,64.57,1.3,101.49-56.07,111.35-79.56.05-.12.1-.23.17-.35.63-1.19,4.38-8.3,5.05-12.16Z"/>
    <path class="cls-1" d="M108.17,83.65C114.35,39.21,142.55,2.89,162.64.69c29.68-3.26,59.52,36.8,71.49,85.8,9.44,38.65-19.83,75.65-59.95,75.65s-72.23-33.81-66.01-78.48Z"/>
    <path class="cls-1" d="M233.65,179.35c7.99-41.58,33.91-70.07,63.04-70.07s32.78,18.78,28.44,61.93c-5.04,50.07-12.3,80.63-41.43,80.63s-58.24-29.9-50.06-72.48Z"/>
    <path class="cls-1" d="M7.06,147.5C-1.59,100.29-3.52,75.2,28.03,75.2s68.47,28.17,74.51,75.56c6.35,49.78-25.66,88.59-56.52,83.3-18.85-3.24-30.68-41.35-38.96-86.56Z"/>
  </g>
  <g>
    <path class="cls-2" d="M288.5,258.43c.22-1.27-.8-2.42-2.09-2.4-5.69.07-7.62.08-10.11-.17-24.69-2.44-50.57-18.69-50.57-62.06,0-1.97.2-5.82,1.84-12.59.52-2.17.93-4.37,1.19-6.59s.46-4.46.56-6.61c.38-8.2-8.3-13.71-15.57-9.91-29.5,15.45-34.24,14.5-42.79,14.95-7.75.41-19.66-1.87-38.95-14.85-8.68-5.84-20.5-.66-21.94,9.7-.52,3.75-1.08,8.77-1.9,15.83-1.23,10.62-7.66,26.19-14.49,34.41-9.73,11.7-21.13,19.12-35.47,23.48-3.11.94-3.85,2.74-3.89,4.61-.11,6.09,4.94,22.33,7.52,27.44,21.33,42.22,58.67,75.78,110.1,76.81,64.57,1.3,101.49-56.07,111.35-79.56.05-.12.1-.23.17-.35.63-1.19,4.38-8.3,5.05-12.16Z"/>
    <path class="cls-2" d="M108.17,83.65C114.35,39.21,142.55,2.89,162.64.69c29.68-3.26,59.52,36.8,71.49,85.8,9.44,38.65-19.83,75.65-59.95,75.65s-72.23-33.81-66.01-78.48Z"/>
    <path class="cls-2" d="M233.65,179.35c7.99-41.58,33.91-70.07,63.04-70.07s32.78,18.78,28.44,61.93c-5.04,50.07-12.3,80.63-41.43,80.63s-58.24-29.9-50.06-72.48Z"/>
    <path class="cls-2" d="M7.06,147.5C-1.59,100.29-3.52,75.2,28.03,75.2s68.47,28.17,74.51,75.56c6.35,49.78-25.66,88.59-56.52,83.3-18.85-3.24-30.68-41.35-38.96-86.56Z"/>
  </g>
</svg>